<svg xmlns="http://www.w3.org/2000/svg" height="4.516mm" viewBox="0 0 16.000001 15.999999" width="4.516mm"><path fill="none" d="M0 0h16v16H0z"/><path d="M7.49 13.73l-.295-.025V8.69l-2.477.055-2.477.053-.01-.31c-.015-.366.02-1.26.048-1.292.01-.012 1.116-.02 2.456-.02l2.437.002.052-1.136c.028-.624.05-1.736.052-2.47V2.237l.334-.008c.458-.01 1.036.014 1.07.047.013.014.02 1.123.016 2.462l-.01 2.436 2.498.02 2.5.022.023.737.025.737H8.69l-.01 1.973c-.004 1.085-.016 2.027-.026 2.093-.01.065-.023.32-.03.564l-.014.445-.413-.007c-.227-.004-.546-.018-.708-.03zm.964-.194c0-.055.024-.19.05-.3l.05-.2-.247.236c-.18.17-.22.25-.15.297.15.095.296.078.297-.034zm-.273-.392c.272-.286.32-.36.155-.247-.13.09-.303.24-.385.33-.083.093-.188.17-.234.17-.046 0 .12-.208.366-.462.433-.443.45-.476.45-.88 0-.26-.03-.403-.08-.373-.042.027-.077.116-.077.198s-.227.35-.51.602c-.384.34-.513.507-.513.662 0 .192.038.17.51-.304.28-.28.535-.484.568-.45.033.033-.192.31-.5.613-.516.51-.543.552-.35.552.15 0 .322-.117.6-.41zm.347-1.986c-.005-.22-.017-.243-.07-.113-.035.087-.298.386-.584.664-.352.34-.52.564-.52.69 0 .162.08.108.59-.39.513-.505.588-.615.584-.852zm-.94.612c0-.05.214-.306.473-.566.26-.26.472-.51.472-.553 0-.043-.23.15-.51.432-.715.72-.747.528-.036-.22l.585-.615-.608.596c-.556.543-.61.624-.61.907 0 .267.017.297.118.21.065-.053.118-.14.118-.19zm.945-1.776c0-.033-.212.153-.472.413-.614.616-.612.456.002-.206.35-.377.468-.56.452-.703-.02-.185-.027-.187-.14-.045-.068.086-.076.123-.02.09.06-.038.1-.018.1.05 0 .06-.25.354-.55.65-.43.418-.552.59-.552.765 0 .217.026.2.59-.364.324-.324.59-.617.59-.65zm-.982.382l.156-.19-.177.11c-.098.06-.178.16-.178.223 0 .062.01.098.02.08.012-.02.092-.12.178-.224zm.648-1c.184-.175.334-.372.334-.438s-.265.146-.59.473-.59.63-.59.67c0 .076.18-.073.846-.705zm1.184-2.03c-.1-.033-2.03 1.967-2.03 2.103 0 .043.48-.406 1.063-.997.584-.59 1.02-1.09.967-1.106zm-1.242.89c.787-.817.638-.74-.257.134-.45.44-.61.642-.51.642.012 0 .357-.35.767-.775zm.706.02c.23-.317-.232.13-.492.477l-.24.32.308-.32c.17-.175.36-.39.424-.478zm-6.133.273c0-.047-.035-.063-.078-.036-.22.138-.022-.134.45-.616.35-.357.482-.54.393-.54-.075 0-.136.052-.136.115s-.212.304-.472.536c-.49.436-.584.623-.314.623.086 0 .157-.038.157-.084zm1.017-.564c.44-.474.547-.628.43-.628-.087 0-.422.274-.78.638-.536.548-.597.636-.43.627.135-.007.377-.204.78-.637zm.507.533c-.025-.067-.098-.096-.174-.07-.072.026.117-.22.42-.543l.55-.59-.64.627c-.45.44-.657.596-.7.526-.04-.067.12-.27.482-.603.3-.277.49-.504.423-.506-.065 0-.4.285-.745.636l-.625.637h.526c.426 0 .518-.022.483-.114zm1.48-.506c.29-.335.517-.62.504-.634-.013-.014-.294.253-.624.594-.72.745-.797.68-.117-.1l.484-.556-.54.518c-.297.285-.583.572-.636.638-.053.066-.124.092-.157.057-.033-.033.184-.31.484-.616s.51-.55.467-.546c-.04.006-.333.287-.648.625l-.572.616.415.007.415.008.528-.61zm.495-.018c.344-.35.572-.638.508-.638-.065 0-.4.287-.744.638-.344.35-.572.637-.507.637.064 0 .398-.287.742-.637zm.35-.01c.377-.406.536-.628.45-.628-.072 0-.13.05-.13.112s-.253.35-.56.638c-.31.29-.513.52-.454.515.06-.006.37-.292.693-.637zm.906-.415c.585-.56 1.064-1.063 1.064-1.113 0-.05-.398.306-.885.794s-.92.873-.966.855c-.044-.017-.203.097-.353.255-.243.257-.253.284-.098.26.095-.014.653-.486 1.238-1.05zm.312.565c.202-.252.346-.458.32-.458-.11 0-.9.823-.857.89.07.117.146.057.537-.432zm.035-.41c.448-.455.8-.863.785-.907-.016-.044-.45.328-.964.828-.637.617-.888.908-.785.908.087 0 .498-.353.965-.828zm1.83.697c.08-.073.145-.17.145-.216 0-.12.562-.69.68-.69.053 0 .12-.034.146-.078.027-.045-.034-.08-.137-.08-.135 0-.314.155-.64.553-.297.36-.507.55-.606.542-.198-.016-.192-.046.06-.312.116-.123.194-.224.173-.224-.02 0-.177.144-.345.32l-.308.318h.344c.21 0 .4-.052.488-.132zm.965-.476c.393-.424.502-.585.393-.578-.083.005-.397.274-.696.598-.393.424-.503.585-.393.578.083-.005.396-.275.696-.598zm.204-.01l.588-.618-.61.596c-.565.553-.645.64-.587.64.012 0 .286-.278.61-.618zm.02.327c.47-.54.486-.628.034-.188-.247.24-.45.447-.45.458 0 .103.21-.033.416-.27zm.73-.265c.29-.306.556-.538.59-.517.035.023.085.004.112-.04.03-.05-.06-.082-.23-.082-.182 0-.28.038-.28.107 0 .06-.123.22-.273.36-.24.22-.577.73-.484.73.018 0 .272-.25.563-.557zm1.184-.038l.595-.594-.32.013c-.288.01-.38.073-.89.593l-.57.58h.295c.26 0 .363-.068.89-.593zm-.444.013c.28-.294.52-.535.533-.535.072 0-.158.31-.387.52-.562.518-.63.525-.146.015zm.703.003c.277-.296.488-.538.47-.538-.02 0-.282.255-.583.567-.302.312-.513.554-.47.538.043-.016.306-.27.583-.567zm.196.13c.5-.556.436-.552-.11.01-.235.24-.393.434-.352.43.043-.005.25-.202.463-.44zm.194.2c.265-.34.167-.36-.148-.03-.16.166-.22.276-.153.273.062-.003.197-.112.3-.244zm.167.168c0-.044-.015-.08-.034-.08-.02 0-.057.036-.084.08-.026.044-.01.08.035.08.047 0 .084-.036.084-.08zM2.87 7.777c.292-.3.385-.44.292-.44-.074 0-.134.045-.134.098s-.15.25-.33.438c-.183.188-.315.342-.293.342s.23-.197.465-.438zm4.02.06c.098-.127.096-.13-.03-.03-.075.06-.137.122-.137.14 0 .064.065.022.168-.11zm-4.295-.34c.138-.154.137-.16-.027-.16-.117 0-.17.05-.17.16 0 .088.013.16.028.16s.09-.072.17-.16zm5.71-.06c.1-.126.096-.128-.03-.03-.074.06-.136.124-.136.14 0 .066.063.024.166-.11zm.345-.02c.027-.043.013-.08-.03-.08s-.1.037-.127.08c-.027.045-.014.08.03.08.043 0 .1-.035.127-.08zM7.554 6.88c.115-.18.117-.2.013-.114-.11.093-.124.08-.104-.105.014-.134.213-.405.56-.76.297-.302.52-.57.495-.595-.024-.024-.15.073-.278.217-.427.48-.81.813-.81.707 0-.058.257-.38.57-.714l.567-.61-.597.587-.598.586-.01.51c-.007.28.002.51.02.51.017 0 .094-.1.172-.22zm.966-.938c-.02-.102-.126.002-.373.368l-.345.51.373-.368c.23-.228.362-.42.345-.51zm0-1.427c-.018-.083-.2.095-.525.512-.274.35-.53.62-.57.594-.04-.024-.073.025-.073.11 0 .113.164-.015.597-.467.346-.36.585-.674.57-.748zm-.81.61l.298-.377-.328.315c-.285.274-.398.442-.298.442.017 0 .164-.17.328-.38zm.81-1.254c.02-.128-.03-.106-.264.12-.16.154-.395.433-.523.62s-.266.32-.307.294c-.04-.025-.074.016-.074.09 0 .184 1.13-.905 1.167-1.123zm-.7.303l.265-.382-.366.357c-.203.195-.368.406-.368.468 0 .16.15.02.47-.442zm.62-.92c.162-.242.064-.156-.5.436l-.548.574.476-.436c.262-.24.52-.498.57-.575zM8.53 2.8c0-.156-.588.428-.797.792-.137.24-.092.212.32-.197.262-.262.477-.53.477-.594zm-.708.278c0-.127-.387.377-.39.51 0 .063.085-.008.194-.156.108-.148.196-.307.196-.354zm-.234-.165c.083-.102.078-.114-.03-.072-.07.03-.13.084-.13.123 0 .102.047.088.16-.05zm.942-.454c0-.113-.147.006-.247.2-.09.173-.09.174.078.023.093-.084.17-.185.17-.224zm-.54-.046c-.058-.02-.18.043-.274.14l-.17.178.276-.14c.166-.086.233-.156.17-.178zm-.404.102c.08-.098.075-.12-.03-.12-.07 0-.127.054-.127.12s.015.12.03.12c.017 0 .075-.054.128-.12z"/></svg>