<?xml version="1.0" encoding="UTF-8" standalone="no"?>
<!-- Created with Inkscape (http://www.inkscape.org/) -->
<svg id="svg2" xmlns:rdf="http://www.w3.org/1999/02/22-rdf-syntax-ns#" xmlns="http://www.w3.org/2000/svg" height="4.5156mm" viewBox="0 0 15.999999 15.999999" width="4.5156mm" version="1.1" xmlns:cc="http://creativecommons.org/ns#" xmlns:dc="http://purl.org/dc/elements/1.1/">
 <defs id="defs4">
  <clipPath id="clipPath4162" clipPathUnits="userSpaceOnUse">
   <rect id="rect4164" height="12.185" width="18.309" y="140.64" x="452.22" fill="none"/>
  </clipPath>
 </defs>
 <metadata id="metadata7">
  <rdf:RDF>
   <cc:Work rdf:about="">
    <dc:format>image/svg+xml</dc:format>
    <dc:type rdf:resource="http://purl.org/dc/dcmitype/StillImage"/>
    <dc:title/>
   </cc:Work>
  </rdf:RDF>
 </metadata>
 <rect id="rect4152" height="16" width="16" y="6.1035e-7" x="-.0000073242" fill="none"/>
 <path id="path4154" d="m459.12 160.78-0.99784-1.2662-0.27913 0.26172c-0.23578 0.22107-0.26271 0.23002-0.1735 0.0577 0.0575-0.11221 0.14714-0.22982 0.19805-0.26126 0.15527-0.0959 0.1052-0.27087-0.17463-0.60574-0.2341-0.28046-0.28614-0.30426-0.42079-0.19251-0.20676 0.1716-0.30831 0.0508-0.12904-0.15421 0.0786-0.0899 0.12202-0.21872 0.0982-0.28639-0.0323-0.0906-0.10939-0.0662-0.28936 0.093-0.19679 0.17351-0.2132 0.178-0.0827 0.0227 0.19932-0.23786 0.21081-0.42407 0.0211-0.35145-0.10098 0.039-0.12483 0.0112-0.0814-0.0994 0.0716-0.18502-0.22653-0.54456-0.39667-0.47929-0.14797 0.0569-0.2564-0.0975-0.12483-0.17852 0.0996-0.0612-0.30283-0.68502-0.75659-1.1745-0.13465-0.14552-0.2686-0.31749-0.29708-0.3822-0.0281-0.0647-0.36497-0.51363-0.74788-0.99761-0.38279-0.48398-0.67581-0.91299-0.65084-0.95334 0.0252-0.0405 0.59739-0.0746 1.2722-0.0764 0.93122-0.003 1.2704-0.0359 1.4074-0.13956 0.25064-0.1896 0.4891-0.18747 0.33102 0.003-0.1024 0.1233 0.13746 0.13956 2.0632 0.13956 2.1783 0 2.1792-0.00008 2.4942-0.23251 0.40059-0.29555 0.46372-0.29555 0.18599 0l-0.21839 0.23251h0.83471c0.52516 0 0.87609-0.0414 0.94623-0.11165 0.087-0.0869 0.11222-0.0869 0.11222 0 0 0.0826 0.43285 0.11165 1.6687 0.11165 0.91775 0 1.6902 0.0348 1.7164 0.0773 0.0547 0.0882-0.41742 0.70119-3.8796 5.0381-1.368 1.7137-2.5238 3.1283-2.5684 3.1437-0.0448 0.0155-0.52992-0.54189-1.0788-1.2383zm1.286 0.55641c0.21489-0.29528 0.15822-0.2939-0.12063 0.003-0.12063 0.12792-0.17981 0.23121-0.13325 0.2296 0.0477-0.00091 0.16116-0.10619 0.25318-0.23252zm-0.2543-0.43149 0.27309-0.29488-0.30226 0.20822c-0.16622 0.11445-0.30228 0.2472-0.30228 0.29488 0 0.13296 0.0365 0.10982 0.33145-0.20822zm-0.13466-0.47242c0.28151-0.365 0.28502-0.37747 0.0463-0.16277-0.2456 0.22036-0.48321 0.55805-0.39259 0.55805 0.0224 0 0.17911-0.17788 0.34686-0.39528zm0.37128-0.66182c0.0715-0.0112 0.52754-0.41715 1.0136-0.90062 0.48587-0.48346 1.1137-1.0663 1.3951-1.2952l0.51154-0.41615-0.36651 0.46266c-0.2017 0.25446-0.68014 0.81843-1.0633 1.2532l-0.69656 0.79057 0.64466-0.61736c0.35459-0.33953 0.73752-0.66465 0.85085-0.72243 0.11361-0.0578 0.73821-0.76355 1.3883-1.5683 1.4986-1.855 1.4756-1.8208 0.87511-1.3021-0.54073 0.46707-0.73302 0.5147-0.38054 0.0943 0.11782-0.14048-0.60763 0.58137-1.6118 1.6041-1.7518 1.7839-2.2183 2.1824-1.482 1.2658 0.18907-0.23545-0.18992 0.116-0.84229 0.78099-0.65238 0.66501-1.1522 1.1383-1.1106 1.0518 0.042-0.0866 0.72768-0.86081 1.5247-1.7206 2.2898-2.4706 2.313-2.5474 0.10801-0.3622-2.0365 2.0189-2.0546 2.0402-1.9004 2.249l0.15556 0.21082 0.42809-0.41833c0.23536-0.23008 0.48658-0.42805 0.5581-0.43992zm0.45544 0.35954c0.12063-0.12793 0.1975-0.23252 0.17197-0.23252-0.0253 0-0.14475 0.10464-0.26496 0.23252-0.12063 0.12791-0.1975 0.23251-0.17197 0.23251 0.0252 0 0.1449-0.10464 0.26496-0.23251zm0.87371-2.767c2.1972-2.2722 2.8467-2.873 2.8467-2.6337 0 0.0222-0.30102 0.40933-0.66907 0.86033l-0.66892 0.82001 1.227-1.1543c0.67482-0.63484 1.227-1.1685 1.227-1.1858 0-0.0174-0.5964-0.0308-1.3254-0.0299l-1.3254 0.00091-0.40634 0.48663c-0.22359 0.26765-1.0447 1.1772-1.8248 2.0213-1.6513 1.7863-2.3708 2.6164-2.3719 2.7364 0 0.0471 0.0687 0.16236 0.1533 0.25607 0.14713 0.1625 0.21938 0.10633 1.5609-1.2109 0.7737-0.7597 1.5026-1.4326 1.6201-1.4954 0.20408-0.10927 0.20829-0.10478 0.0996 0.1021-0.0632 0.11896-0.73569 0.84689-1.4952 1.6176-1.2329 1.2511-1.5454 1.6129-1.3068 1.513 0.0407-0.0171 1.2376-1.2343 2.6598-2.705zm-3.1059 2.0727c0-0.058 1.1272-1.2438 2.5048-2.6353 2.0064-2.0264 2.5281-2.5069 2.6221-2.4143 0.094 0.0928-0.33425 0.55987-2.156 2.3517-2.3618 2.323-2.971 2.8762-2.971 2.6979zm4.7847-4.1064c0.40635-0.42889 0.81326-0.86119 0.90429-0.96064 0.0912-0.0995 0.19132-0.15486 0.22315-0.12316 0.0702 0.0699-1.409 1.6266-1.6768 1.7654-0.1038 0.054 0.14306-0.25279 0.54941-0.68169zm-4.8541 3.4288c0.12764-0.16625 0.84748-0.95099 1.6-1.7439 2.1047-2.2175 2.4839-2.7149 0.92981-1.2193-2.1618 2.0805-3.0139 2.9832-2.9565 3.1324 0.0771 0.20079 0.17197 0.16313 0.42669-0.16925zm3.0189-3.6776 1.1359-1.0426-0.57776 0.00091-0.57789 0.00091-1.7206 1.6742c-0.94636 0.92079-1.8881 1.8033-2.0926 1.9611-0.20464 0.1578 0.52782-0.59786 1.6276-1.6793s1.9319-1.9541 1.8491-1.9393c-0.0827 0.0147-1.0088 0.86445-2.0578 1.8881-1.8578 1.8129-1.9034 1.8663-1.7561 2.0588 0.14854 0.19414 0.18683 0.1624 2.1706-1.7914 1.8407-1.8131 2.2124-2.1347 2.2124-1.9147 0 0.041-0.91271 0.98117-2.0284 2.0894-1.6048 1.5941-2.0111 2.0462-1.9452 2.1639 0.0674 0.12091 0.32234-0.0936 1.3541-1.1399 0.69894-0.70883 1.7819-1.758 2.4067-2.3313zm-1.0893-0.89671c0 0.0411-0.094 0.18201-0.20843 0.31319-0.11501 0.13115-0.0491 0.092 0.14559-0.087l0.35389-0.32553-0.49429-0.0291-0.49429-0.029-0.59823 0.68007c-0.32892 0.37404-1.0018 1.0855-1.4951 1.5811-0.70119 0.70441-0.87862 0.93364-0.81325 1.0506 0.0687 0.12189 0.40971-0.16335 1.8439-1.5397 0.9681-0.92909 1.7602-1.6557 1.7602-1.6146zm-3.4923 2.2956 0.36034-0.44179-0.38713 0.36765c-0.32779 0.3112-0.47086 0.51593-0.36047 0.51593 0.0155 0 0.18908-0.19881 0.38726-0.44179zm-0.31601-0.17773 0.3205-0.34048-0.34884 0.25852c-0.19174 0.14219-0.34869 0.29539-0.34869 0.3405 0 0.12862 0.0351 0.10407 0.37703-0.25854zm1.4897-1.8917c0.0744 0 0.0547 0.0667-0.0532 0.18603-0.31574 0.34891 0.014 0.18726 0.37198-0.18603l0.36329-0.37202h-0.2996c-0.25249 0-0.47466 0.16215-1.414 1.0323-0.61282 0.56777-1.1143 1.063-1.1143 1.1006 0 0.2423 0.22667 0.0762 1.0744-0.78714 0.52599-0.53556 1.0081-0.97376 1.0714-0.97376zm-2.1824 1.3459c0.0224-0.15514-0.10941-0.1846-0.19595-0.0437-0.0673 0.10899 0.0393 0.31743 0.12063 0.23602 0.0308-0.0304 0.0645-0.11698 0.0758-0.1922zm-0.41182-0.31054c-0.0898-0.0571 0.0323-0.21767 0.45755-0.60296 0.58546-0.5299 0.86472-0.64338 0.44842-0.1823-0.12343 0.13717 0 0.0638 0.26426-0.16314l0.48924-0.41252-0.38769-0.0293c-0.36553-0.0276-0.42107 0.004-0.97245 0.55036-0.48419 0.47989-0.5692 0.60901-0.49373 0.75012 0.0505 0.0937 0.14209 0.16982 0.20422 0.16903 0.0814-0.00091 0.0786-0.0233-0.014-0.0793zm10.351-1.3944c-0.0239-0.0242-0.0547-0.0256-0.0673-0.003-0.014 0.0226-0.25345 0.29106-0.53469 0.59681l-0.51154 0.55589 0.57887-0.55274c0.31839-0.30399 0.55896-0.57256 0.53469-0.59679zm-10.597 0.46755c-0.2066-0.0419-0.42332 0.15254-0.35837 0.32181 0.0435 0.11221 0.0954 0.098 0.28164-0.0765 0.18993-0.17795 0.20297-0.21956 0.0771-0.24524zm2.6469-0.44867c0-0.0175-0.0519-0.0305-0.11643-0.0289-0.0632 0.00092-0.28361 0.20021-0.48826 0.44118l-0.37197 0.43814 0.48825-0.40924c0.26862-0.22509 0.48826-0.42362 0.48826-0.44119zm1.5721-0.008c0.0224-0.0127-0.0196-0.0224-0.0912-0.0216-0.073 0.00091-0.27492 0.17881-0.44969 0.39529l-0.31784 0.3936 0.40943-0.37202c0.22527-0.20462 0.42753-0.38251 0.4497-0.3953zm-4.9812 0.11221c-0.0308-0.079-0.0744-0.12356-0.0996-0.0992-0.0239 0.0244-0.0169 0.0889 0.0169 0.14352 0.0912 0.1484 0.14518 0.1195 0.0827-0.0443zm1.3165-0.0425c0.0336-0.0538-0.0532-0.0925-0.20381-0.0916-0.20282 0.00091-0.23003 0.0216-0.12203 0.0916 0.1787 0.11544 0.25416 0.11544 0.32556 0zm3.8598-2.9616c0-0.0467 0.0632-0.13705 0.14027-0.20068 0.0771-0.0637 0.13886-0.14638 0.13886-0.18376 0-0.12064-1.3945-0.19513-1.5994-0.0854-0.13746 0.0739-0.17281 0.0736-0.12765-0.00065 0.1066-0.17183-1.4785-0.13549-1.6219 0.0372-0.0632 0.0767-0.17857 0.13955-0.25529 0.13955-0.11641 0-0.11923-0.0244-0.0182-0.14573 0.10941-0.13144-0.014-0.14351-1.2432-0.12301-0.75027 0.0127-1.3916-0.004-1.425-0.038-0.0336-0.0334-0.0196-0.11404 0.0323-0.17926 0.0505-0.0653 1.2495-1.5735 2.6635-3.352 1.4139-1.7784 2.5605-3.2719 2.548-3.319-0.0224-0.0866 0.86543-1.297 0.95674-1.3033 0.0267-0.00092 0.29484 0.28593 0.59473 0.63957 0.37114 0.43756 0.59065 0.62555 0.68744 0.58841 0.10659-0.0408 0.12623-0.0127 0.0786 0.11109-0.0463 0.11908 0.042 0.27072 0.30943 0.53863 0.20506 0.20513 0.37281 0.39195 0.37281 0.41516 0 0.0231 0.0519 0.0962 0.11643 0.16238 0.0645 0.0661 0.2557 0.28848 0.42612 0.49421 0.22022 0.26574 0.36161 0.36053 0.48841 0.32739 0.18949-0.0495 0.23747 0.0648 0.0898 0.21282-0.14026 0.13998 0.89208 1.3028 1.1297 1.2727 0.15415-0.0195 0.18038 0.0147 0.13746 0.17856-0.0393 0.14822 0.0519 0.32931 0.33776 0.67375 0.21489 0.25909 0.45978 0.55541 0.54436 0.65851 0.0842 0.1031 0.45082 0.54142 0.81383 0.97405 0.67944 0.80964 0.72292 0.88422 0.57087 0.97817-0.0491 0.0303-1.4827 0.0535-3.1861 0.0515-2.9767-0.003-3.1013 0.003-3.2107 0.17861-0.12904 0.20736-0.48967 0.42687-0.48967 0.29845zm-1.4397-1.6186c0.48027-0.49446 0.59795-0.64163 0.27717-0.34634-0.30705 0.28246-0.68071 0.61708-0.83037 0.74361l-0.27239 0.23009 0.21769-0.32553 0.21755-0.32553-0.38321 0.36388c-0.3644 0.34605-0.42261 0.51969-0.1742 0.51969 0.0617 0 0.4884-0.38693 0.94776-0.85987zm0.6995 0.42534 0.41463-0.43455-0.3668 0.29246c-0.86066 0.68614-0.32779 0.0711 1.5662-1.8078 1.4386-1.4269 1.9961-2.0375 1.9254-2.1082-0.0715-0.0707-0.63189 0.42208-1.9378 1.7016-1.0109 0.99065-2.0678 2.0239-2.3486 2.2961l-0.51056 0.49491h0.4215c0.38053 0 0.46147-0.042 0.83597-0.43453zm0.95226 0.0879c0.91284-1.0566 2.4636-2.724 2.8241-3.0367l0.41562-0.36049-0.20844-0.2218-0.2083-0.22179-0.93626 0.99404c-0.51491 0.5467-0.93612 1.0342-0.93612 1.0834 0 0.0491-0.4814 0.54322-1.0697 1.098l-1.0695 1.0086 0.44464 0.00091c0.39864 0.00091 0.47549-0.0342 0.74396-0.34489zm1.8794-2.6644c0.51084-0.48529 0.9465-0.86472 0.96796-0.84322 0.0477 0.0478-1.5374 1.5458-1.7468 1.6505-0.0828 0.0412 0.26804-0.322 0.77889-0.80731zm-1.0218 2.43c0.83373-1.0388 1.7331-2.2093 1.6976-2.2093-0.0196 0-0.61015 0.62781-1.3133 1.3951-1.0518 1.1476-1.2405 1.395-1.064 1.3944 0.15093-0.00064 0.35263-0.17264 0.67973-0.58016zm1.814-0.86821c0.84186-0.99113 1.2007-1.4793 1.1353-1.5446-0.0659-0.0653-0.13186-0.0262-0.21167 0.12372-0.25149 0.47443-2.5053 2.7719-2.5053 2.5538 0-0.024 0.24279-0.34986 0.53945-0.72409 0.47733-0.60225 0.7925-1.0454 0.64929-0.91291-0.0435 0.0398-1.2287 1.4988-1.4927 1.8369-0.0687 0.0888 0 0.11628 0.28193 0.11628 0.36652 0 0.39387-0.0247 1.6036-1.4491zm-0.38138 1.0575c0.18388-0.21539 0.32247-0.42905 0.30788-0.47482-0.014-0.0458 0.0224-0.14161 0.0814-0.21296 0.0589-0.0714 0.087-0.12975 0.0617-0.12975s-0.28544 0.27204-0.57733 0.60455c-0.37998 0.43276-0.48476 0.60455-0.36903 0.60455 0.0883 0 0.31223-0.17621 0.49611-0.39159zm1.2074-0.73721c0.84201-0.88333 1.0079-1.102 0.90232-1.1897-0.1038-0.0866-0.24363 0.0333-0.71773 0.61726-0.32345 0.39856-0.79839 0.94932-1.0554 1.2239-0.25697 0.27458-0.39836 0.48385-0.31419 0.46502 0.0842-0.0188 0.61744-0.52126 1.185-1.1165zm-0.34954 0.96605c0.11501-0.14752 0.11221-0.1508-0.0351-0.0351-0.15499 0.12147-0.20422 0.19787-0.12764 0.19787 0.0196 0 0.0926-0.0733 0.16285-0.16276zm1.0914-0.638c0.62263-0.75093 0.76122-0.97493 0.59416-0.96027-0.13466 0.0112-1.509 1.761-1.3841 1.761 0.0702 0 0.42486-0.36034 0.78997-0.80076zm0.83177 0.3196c0.37071-0.43264 0.39064-0.48239 0.26776-0.66746-0.073-0.10997-0.17575-0.2-0.22835-0.2-0.0842 0-1.1374 1.2122-1.1374 1.3098 0 0.0213 0.15696 0.0357 0.34883 0.032 0.2999-0.005 0.40481-0.0722 0.74916-0.47431zm0.89377 0.33781c0.12623-0.0525 0.15821-0.0423 0.1108 0.0344-0.0365 0.0599-0.0224 0.10885 0.0308 0.10885 0.14911 0 0.12063-0.0866-0.12483-0.37871l-0.22386-0.26608-0.13186 0.20614c-0.29694 0.46505-0.29749 0.46823-0.0617 0.4176 0.12344-0.0264 0.30326-0.0816 0.40116-0.1223zm-8.6845-0.37806c0.22806-0.23563 0.79136-0.76564 1.2517-1.1778 1.2514-1.1203 3.5982-3.4299 3.5422-3.4859-0.0267-0.027-0.52725 0.45004-1.1116 1.06-1.1991 1.2517-2.4536 2.3902-2.1346 1.9373 0.1094-0.15468 0.82981-0.93524 1.602-1.7346 0.77216-0.79938 1.4038-1.4818 1.4038-1.5164 0-0.0347-0.88942 0.79755-1.9763 1.8493-1.087 1.0518-2.0797 1.9845-2.2059 2.0727l-0.22933 0.16047 0.22456-0.32164c0.12344-0.17692 1.0695-1.1671 2.102-2.2004 1.7246-1.7259 1.8647-1.8903 1.7211-2.0203-0.1428-0.12932-0.23606-0.0598-1.082 0.80709-0.50916 0.52171-0.79011 0.827-0.62432 0.67842 0.16566-0.14857 0.32094-0.25043 0.34505-0.22634 0.0968 0.0968-4.0794 4.5318-4.1785 4.4373-0.1108-0.10605 0.0505-0.30544 1.4412-1.7736l1.3436-1.4189-1.3371 1.2556c-1.7614 1.6541-2.1446 1.987-2.2106 1.921-0.0308-0.0302 0.0169-0.16407 0.1038-0.29729 0.15163-0.2315 0.1512-0.23818-0.014-0.15094-0.0926 0.0502-0.27085 0.19975-0.39484 0.33232l-0.22541 0.24106h1.1129 1.113l0.41462-0.4284zm2.7137-4.5182c0.0365-0.0929 0.0575-0.16889 0.0463-0.16889-0.014 0-0.96251 0.94865-2.113 2.1081l-2.0919 2.1081 2.0462-1.9392c1.1253-1.0666 2.0762-2.0152 2.1129-2.1081zm0.53777 3.2065c0-0.0699-0.0842 0.004-0.4689 0.41465l-0.41462 0.44178 0.44169-0.41464c0.24308-0.22806 0.44183-0.42687 0.44183-0.44179zm2.9268-1.598c-0.0561-0.0543-0.22191 0.1087-0.44632 0.44006l-0.35628 0.5263 0.44632-0.44009c0.28249-0.27847 0.41336-0.47174 0.35628-0.52627zm-1.2113-1.1421c0.0996-0.0908 0.16019-0.18578 0.13466-0.2111-0.0253-0.0253-0.48335 0.40135-1.0179 0.94817l-0.97189 0.99423 0.83711-0.78313c0.46033-0.43071 0.91844-0.8574 1.0179-0.94817zm-2.7197-1.3696c0.71058-0.63544 1.0634-1.013 1.0294-1.1014-0.0365-0.0935-0.38026 0.18856-1.1312 0.92702-0.59374 0.58388-1.247 1.2024-1.4516 1.3746-0.20464 0.17212-0.53708 0.52486-0.73864 0.78387-0.32863 0.42228-0.28501 0.39406 0.42234-0.27312 0.43384-0.40923 1.2753-1.1791 1.8697-1.7109zm-1.5748 2.0829c0.20913-0.17904 0.41898-0.32553 0.46609-0.32553 0.13887 0 2.4849-2.2457 2.4849-2.3788 0-0.0667-0.0336-0.14266-0.0757-0.16858-0.042-0.0259-0.81831 0.68315-1.7253 1.5757-1.5698 1.5447-1.9817 2.0094-1.1496 1.2972zm0.62585-1.6742c0.12064-0.12791 0.1975-0.23251 0.17198-0.23251-0.0252 0-0.1449 0.10463-0.26498 0.23251-0.12061 0.12792-0.19748 0.23252-0.17195 0.23252 0.0252 0 0.14475-0.10463 0.26495-0.23252zm1.5548-1.8248c0.0702-0.0218 0.0828-0.0836 0.0351-0.16024-0.059-0.0938-0.13185-0.0475-0.29358 0.18603-0.17645 0.2539-0.18305 0.28326-0.0365 0.16023 0.0996-0.0829 0.2313-0.16655 0.29357-0.18602z" clip-path="url(#clipPath4162)" transform="matrix(-1,0,0,-1,468.19,155.62)"/>
</svg>
