<?xml version="1.0" encoding="UTF-8" standalone="no"?>
<!-- Created with Inkscape (http://www.inkscape.org/) -->
<svg id="svg2" xmlns:rdf="http://www.w3.org/1999/02/22-rdf-syntax-ns#" xmlns="http://www.w3.org/2000/svg" height="4.5156mm" viewBox="0 0 15.999999 15.999999" width="4.5156mm" version="1.1" xmlns:cc="http://creativecommons.org/ns#" xmlns:dc="http://purl.org/dc/elements/1.1/">
 <metadata id="metadata7">
  <rdf:RDF>
   <cc:Work rdf:about="">
    <dc:format>image/svg+xml</dc:format>
    <dc:type rdf:resource="http://purl.org/dc/dcmitype/StillImage"/>
    <dc:title/>
   </cc:Work>
  </rdf:RDF>
 </metadata>
 <g id="g5234" transform="translate(-436.94,-171.05)">
  <rect id="rect4660" height="16" width="16" y="171.05" x="436.94" fill="none"/>
  <path id="path4656" d="m443.53 184.35c-0.084-0.10271-0.7657-0.81336-1.516-1.5792-0.7502-0.76587-1.5562-1.5937-1.791-1.8396-0.2349-0.24592-0.4668-0.44734-0.5154-0.44759-0.1499-0.00069-0.065-0.10336 0.5153-0.61997l0.5596-0.49849 0.1957 0.16468c0.1076 0.0906 0.2378 0.14851 0.2893 0.12874 0.056-0.0216 0.076-0.007 0.049 0.0362-0.051 0.0823 0.6853 0.85468 0.8147 0.85468 0.047 0 0.078 0.0254 0.068 0.0565-0.024 0.0806 0.9599 1.0692 1.0242 1.0295 0.029-0.0181 0.053 0.008 0.053 0.0572 0 0.0496 0.035 0.12551 0.079 0.16878 0.061 0.0607 0.1061 0.0538 0.1989-0.0302 0.066-0.0599 0.1202-0.1339 0.1202-0.16453 0-0.0306 0.1492-0.24085 0.3316-0.46715 0.1823-0.22629 0.3315-0.46053 0.3315-0.52052 0-0.06 0.059-0.16267 0.1316-0.22816 0.1284-0.11615 0.7868-1.1282 0.734-1.1282-0.015 0 0.094-0.15913 0.241-0.35362 0.1472-0.19449 0.3365-0.47796 0.4205-0.62993 0.1511-0.27318 0.1512-0.27489 0.01-0.15-0.2583 0.22699-0.1508 0.007 0.128-0.26206 0.301-0.29046 0.7892-0.97102 0.7892-1.1003 0-0.0456 0.071-0.15913 0.1586-0.2523 0.1858-0.19835 1.7519-2.6192 1.8363-2.8386l0.058-0.14942 0.5153 0.24888c0.2834 0.13689 0.5542 0.28553 0.6016 0.33031 0.048 0.0448 0.1364 0.10948 0.1977 0.14376 0.1025 0.0574 0.1028 0.072 0 0.18381-0.084 0.0957-2.8517 4.5088-3.4107 5.4384-0.2476 0.41164-2.218 3.5102-2.5623 4.0293-0.1923 0.28994-0.3854 0.53809-0.4291 0.55145-0.044 0.0134-0.1479-0.0597-0.2314-0.16245zm0.8167-0.88299c0.1116-0.19239 0.061-0.15924-0.2985 0.19385-0.2382 0.23426-0.4162 0.4533-0.3955 0.48675 0.049 0.0796 0.5217-0.38373 0.694-0.6806zm-0.1434-0.13694c0.353-0.36708 0.6951-0.76245 0.7602-0.8786 0.065-0.11614-0.2414 0.16181-0.6811 0.61769-0.7441 0.77136-0.8733 0.92832-0.7636 0.92832 0.024 0 0.3316-0.30033 0.6845-0.66741zm0.9515-1.2094c0.036 0.0224 0.046 0.008 0.021-0.0318-0.025-0.0399-0.01-0.0967 0.043-0.12628 0.048-0.0296 0.1874-0.21792 0.3092-0.41851 0.1219-0.20058 0.269-0.4393 0.327-0.53047 0.102-0.16045 0.1013-0.16258-0.023-0.0663-0.3239 0.25084-1.1783 1.0551-1.2739 1.1991-0.058 0.0881 0.1422-0.0785 0.4459-0.37026l0.5523-0.53047-0.4695 0.53047c-0.2583 0.29176-0.7797 0.85157-1.1588 1.244-0.379 0.39245-0.6651 0.73758-0.6357 0.76695 0.029 0.0294 0.4456-0.34272 0.925-0.82688 0.4794-0.48415 0.9013-0.86197 0.9375-0.83959zm-1.1161 0.36245c0-0.0548 0.5178-0.57947 1.1494-1.1659 1.0447-0.96993 1.3977-1.3787 1.694-1.9614 0.058-0.11453-1.2637 1.236-2.8478 2.9095-0.8965 0.947-1.0767 1.1693-1.0117 1.2477 0.066 0.0795 0.1573 0.01 0.5471-0.41744 0.2574-0.28205 0.4684-0.55767 0.469-0.6125zm-0.6289 0.26147c0-0.0175-0.084 0.0484-0.186 0.14642-0.1022 0.098-0.2139 0.17818-0.2481 0.17818-0.034 0 0.6687-0.73846 1.5619-1.641 0.8932-0.90255 1.1615-1.1917 0.5962-0.64262-1.4024 1.3624-1.6623 1.5877-1.721 1.4928-0.032-0.0521-0.1047-0.005-0.2178 0.14089-0.2974 0.38421-0.4723 0.54486-0.5005 0.45999-0.015-0.0437 0.1145-0.24463 0.287-0.44645 0.2118-0.24798 0.2917-0.38876 0.2462-0.43419-0.045-0.0454-0.1678 0.0635-0.3774 0.33593-0.3111 0.40426-0.4192 0.49751-0.3412 0.29432 0.035-0.091 0.025-0.0951-0.059-0.025-0.055 0.0461-0.1009 0.0667-0.1009 0.0459 0-0.0954 0.4278-0.65794 0.5723-0.75263 0.1525-0.0999 0.1552-0.11245 0.05-0.22931-0.1575-0.17403-0.1969-0.1595-0.4288 0.15821-0.1132 0.155-0.2322 0.27455-0.2644 0.26566-0.032-0.009-0.107 0.0575-0.166 0.1475-0.1053 0.16069-0.1 0.17217 0.3089 0.63183l0.4161 0.46817 0.2866-0.28136c0.1577-0.15474 0.2867-0.29564 0.2867-0.3131zm-1.3373-0.66909c0.08-0.10889 0.1471-0.22078 0.1481-0.24866 0-0.0279 0.097-0.14986 0.2142-0.27107l0.2125-0.2204-0.1599-0.13037c-0.1756-0.14332-0.2884-0.0919-0.3055 0.13938-0.01 0.12075 0 0.12411 0.1004 0.0342 0.1892-0.17121 0.2072-0.10986 0.044 0.14893-0.086 0.13677-0.1586 0.27349-0.1605 0.30384 0 0.0303-0.081 0.14224-0.1759 0.24866-0.095 0.10641-0.148 0.19348-0.1181 0.19348 0.03 0 0.1202-0.0891 0.2008-0.19798zm-0.1327-0.17475c0.085-0.13116 0.1236-0.21941 0.086-0.1961-0.1048 0.0648-0.3563 0.43632-0.2947 0.43539 0.03-0.00046 0.1238-0.10813 0.2088-0.23929zm-0.1599-0.5502c0.2959-0.29898 0.3769-0.42139 0.3402-0.5139-0.041-0.10344-0.105-0.06-0.4318 0.293-0.2111 0.22794-0.4239 0.41443-0.473 0.41443-0.049 0 0.1021-0.19314 0.3361-0.4292 0.2339-0.23605 0.4038-0.45072 0.3775-0.47702-0.026-0.0263-0.2404 0.14308-0.4759 0.37641l-0.428 0.42424 0.143 0.15225c0.079 0.0837 0.1612 0.15225 0.1833 0.15225 0.022 0 0.215-0.17661 0.4286-0.39246zm4.9656-2.4034c0.8619-0.78772 1.2119-1.2176 1.6648-2.0447 0.03-0.0547-0.3288 0.30337-0.7973 0.79571-0.4684 0.49234-1.4342 1.493-2.1462 2.2238-1.5173 1.5574-1.9453 2.1444-0.5772 0.79176 0.5173-0.51143 1.3524-1.3064 1.8559-1.7666zm-5.138 1.3613-0.1756-0.17562-0.4215 0.44055-0.4215 0.44054 0.1661 0.16608 0.1661 0.16609 0.431-0.43101 0.431-0.43101-0.1756-0.17562zm-0.419 0.43996c0.2165-0.21882 0.4086-0.39785 0.4268-0.39785 0.018 0-0.144 0.17903-0.3605 0.39785-0.2166 0.21882-0.4087 0.39786-0.4269 0.39786-0.018 0 0.144-0.17904 0.3606-0.39786zm-0.246-0.28436c0.3257-0.32868 0.3961-0.43416 0.3322-0.49808-0.064-0.0639-0.1691 0.006-0.4963 0.33038-0.2283 0.22632-0.4367 0.38996-0.463 0.36365-0.026-0.0263 0.1377-0.23507 0.3645-0.46391l0.4124-0.41608-0.1508-0.14053-0.1509-0.14054-0.4454 0.42321c-0.2527 0.24007-0.4154 0.44183-0.3759 0.46621 0.038 0.0237 0.1492-0.0289 0.2465-0.11676 0.097-0.0879 0.2366-0.20302 0.3096-0.2559 0.1255-0.091 0.1275-0.0891 0.036 0.0365-0.053 0.0729-0.1701 0.21447-0.2606 0.31452l-0.1645 0.1819 0.1562 0.16622c0.086 0.0914 0.1742 0.16622 0.1962 0.16622s0.2261-0.18764 0.4534-0.41698zm5.1528-1.3734c0.7287-0.7294 1.31-1.3262 1.2918-1.3262-0.018 0-0.6294 0.59678-1.3581 1.3262-0.7287 0.7294-1.31 1.3262-1.2918 1.3262 0.018 0 0.6294-0.59678 1.3581-1.3262zm3.0467-3.3818c0.1074-0.16411 0.2392-0.37299 0.2928-0.46416 0.053-0.0912-0.7305 0.6548-1.7423 1.6577-1.5855 1.5714-2.1381 2.1847-2.3902 2.6524-0.1139 0.2112 3.6552-3.5639 3.8397-3.8459zm-1.925 3.1403c0.035-0.091 0.025-0.0951-0.059-0.025-0.1151 0.0955-0.127 0.13388-0.042 0.13388 0.033 0 0.078-0.049 0.101-0.10884zm0.3046-2.0537c0.6744-0.67883 1.1366-1.1811 1.0272-1.1161-0.4132 0.24534-2.4495 2.3503-2.2736 2.3503 0.011 0 0.5721-0.5554 1.2464-1.2342zm1.4537-1.9238c0.3307-0.33285 0.6012-0.63092 0.6012-0.66238 0-0.10028-2.3196 2.2525-2.4591 2.4943-0.08 0.13887 0.1453-0.0608 0.5613-0.49732 0.3825-0.40117 0.9659-1.0017 1.2966-1.3346zm0-0.25189c0.2727-0.27625 0.4718-0.50227 0.4426-0.50227-0.075 0-1.6236 1.4676-1.6666 1.5795-0.047 0.12356 0.6099-0.45492 1.224-1.0773zm0.078-0.48058c0.1246-0.14216 0.1244-0.14467-0.013-0.1884-0.077-0.0244-0.1476-0.0341-0.1574-0.0217-0.1058 0.13532-0.635 0.99995-0.6339 1.0359 0 0.0416 0.4281-0.39649 0.8046-0.82581z"/>
 </g>
</svg>
