<svg xmlns="http://www.w3.org/2000/svg" height="4.516mm" viewBox="0 0 16.000001 16.000001" width="4.516mm"><path fill="none" d="M0 0h16v16H0z"/><path d="M12.06 13.16c0-.083-.026-.088-.138-.028-.176.094-.24.034-.12-.11.08-.1.023-.175-.534-.7-.422-.396-.647-.565-.693-.52-.108.11-.163.077-.124-.07.03-.11-.107-.285-.65-.83-.38-.38-.728-.69-.776-.69-.048 0-.073-.025-.054-.056s-.21-.296-.51-.59l-.546-.536-2.005 2.075c-1.605 1.66-2.038 2.074-2.166 2.067-.11-.007-.145-.036-.11-.096.03-.057-.114-.244-.42-.543-.258-.25-.446-.48-.418-.506.028-.028.114.013.192.09l.142.142.353-.303c.194-.166.336-.33.314-.364-.02-.034 1.168-1.277 2.642-2.76C7.913 7.347 9.7 5.537 10.407 4.81l1.287-1.324-1.647 1.622C9.142 6 8.054 7.058 7.63 7.46c-.423.4-1.626 1.572-2.673 2.602-1.046 1.03-1.942 1.874-1.99 1.874-.05 0 .813-.904 1.917-2.008L6.89 7.92l-.255-.25c-.225-.22-.267-.237-.342-.147-.115.14-.226.13-.17-.014l.082-.2c.02-.046-.014-.082-.077-.082-.06 0-.096-.024-.078-.053s-.644-.727-1.47-1.55C3.75 4.8 3.02 4.066 2.953 3.992c-.117-.13-.113-.142.21-.49.18-.194.387-.426.46-.516.126-.158.135-.16.304-.048.096.062.625.553 1.175 1.09s1.043.986 1.094.998c.05.012.093.064.093.116 0 .052.024.095.053.095s.215.16.413.36c.294.293.378.345.457.28.08-.064.09-.056.05.048-.057.152.124.38.262.326.06-.023.082-.003.058.058-.02.05.035.16.12.242.14.13.17.136.244.046.138-.167.224-.115.107.064-.316.483.248-.02 2.116-1.89 1.13-1.13 2.08-2.055 2.112-2.055.03 0 .038.048.015.108-.052.135.136.355.303.355.067 0 .122.045.122.1 0 .125.033.124.23-.005.15-.098.156-.097.122.035-.02.076-.065.155-.1.177-.034.02 0 .11.085.195l.146.157-.952.98c-.524.54-1.444 1.478-2.044 2.087-.922.934-1.078 1.12-1.008 1.205.046.055.127.083.182.062.066-.025.092-.004.078.062-.024.113 1.863 2.05 1.947 1.998.03-.02.053.006.053.054s.373.46.83.915.828.867.828.916c0 .1-.914 1.14-1.003 1.14-.03 0-.057-.046-.057-.102zM7.656 9c3.744-3.754 4.386-4.43 4.173-4.4-.126.02-.505.377-.466.44.035.056-6.08 6.162-7.04 7.03-.423.38-.662.644-.64.702.02.05.055.09.078.09.024-.002 1.776-1.74 3.894-3.863zm3.74-3.98c0-.013.098-.11.216-.217l.216-.195-.195.216c-.18.2-.236.246-.236.195zm1.088 7.383c.178-.166.307-.253.287-.193-.028.082-.01.1.092.075.188-.05.193-.1.028-.272l-.148-.154-.35.402c-.194.222-.382.403-.418.403-.037 0-.01-.06.056-.135.12-.132.12-.135 0-.09-.14.055-.13.035.178-.422.18-.264.317-.36.317-.22 0 .034-.077.16-.172.282-.125.16-.107.15.068-.04.22-.24.23-.272.136-.366-.095-.094-.144-.06-.526.36l-.422.465.17.18c.196.206.183.21.707-.276zm-8.758-.122c.103-.134.594-.678 1.092-1.206.497-.53.696-.768.443-.53-.253.237-.797.728-1.207 1.09-.41.362-.746.677-.746.7 0 .05.148.2.196.196.02 0 .12-.113.223-.25zm8.225-.422c.25-.287.355-.458.305-.488-.045-.028-.198.093-.375.296-.384.438-.465.38-.09-.064.254-.302.318-.528.15-.528-.033 0-.24.204-.463.453l-.403.453.21.21c.113.114.225.186.247.16.023-.028.212-.25.42-.492zM8.48 7.784c1.146-1.157 1.667-1.715 1.26-1.35-.862.77-5.438 5.307-5.438 5.39 0 .09 1.973-1.818 4.177-4.04zm2.485 4.018c-.023-.037.144-.26.37-.496.347-.362.4-.444.328-.53-.046-.055-.105-.1-.13-.1-.027 0-.218.213-.425.475-.355.45-.37.482-.265.597.12.132.19.164.122.055zm-6.962-.33c.066-.073.106-.133.087-.133-.018 0-.087.06-.153.13-.066.074-.105.134-.087.134.018 0 .087-.06.153-.133zm7.03-.564l.383-.464-.47.46c-.26.25-.454.485-.434.518.043.07.02.093.52-.514zm-.21-.075c.206-.224.375-.436.375-.47 0-.036-.056-.115-.125-.177-.12-.108-.13-.1-.29.172-.21.362-.447.83-.447.884 0 .09.127-.018.487-.41zm-4-1.98c.455-.438 1.32-1.244 1.92-1.79.602-.548 1.542-1.44 2.09-1.982l.995-.985-1.094 1.02c-.6.56-1.447 1.354-1.88 1.764-.432.41-.81.73-.842.71-.06-.036-2.25 2.065-3.147 3.02-.525.556-.522.554.3-.2.455-.417 1.2-1.118 1.657-1.556zM7.815 7.8c0-.014.052-.067.116-.117.105-.082.108-.08.025.025-.087.11-.14.146-.14.09zm2.598 2.91l.126-.266-.23.263c-.182.208-.215.283-.155.355.064.077.08.078.105.002.016-.05.085-.21.154-.355zm-.41.032c0-.037-.013-.066-.03-.066s-.047.03-.07.066c-.022.036-.01.066.03.066s.07-.03.07-.066zm.358-.78c.425-.448.18-.325-.285.143-.236.24-.4.457-.375.498.028.045.11-.008.22-.143.094-.118.292-.342.44-.497zm-.36.032c.33-.348.406-.466.345-.528-.06-.06-.166.014-.462.333-.21.226-.42.41-.47.41-.095 0-.023-.105.442-.65.173-.203.256-.35.213-.377-.04-.024-.126.026-.193.11-.067.086-.243.305-.39.487l-.268.332.17.182c.096.1.177.174.18.165 0-.01.2-.22.433-.466zm-.502-.52c.207-.26.358-.492.335-.514-.054-.053-.89.868-.85.936.066.105.15.037.515-.423zm-.788-.19c.103-.128.106-.145.016-.075-.098.076-.116.075-.116-.005 0-.05.022-.123.05-.158.027-.035-.022.002-.11.083-.137.124-.148.162-.074.25.048.058.09.097.095.087 0-.01.067-.092.14-.182zm.88-.475c.058-.018.025-.085-.1-.202l-.184-.176-.128.177c-.128.175-.128.176.01.06.317-.277.293-.085-.043.34-.355.45-.335.5.05.13.173-.168.353-.317.4-.33zm-1.146.274c.066-.073.105-.132.087-.132-.018 0-.087.06-.153.132-.066.073-.105.133-.087.133.018 0 .087-.06.153-.133zm.705-.713c.083-.104.08-.106-.024-.024-.064.05-.116.103-.116.116 0 .055.054.02.14-.09zm-.045-.222c-.035-.057-.163-.042-.285.035-.072.044-.073.066-.01.108.09.057.338-.064.29-.142zm.14-.407l.196-.214-.215.195c-.2.182-.246.237-.194.237.012 0 .11-.097.216-.216zM7.51 7.4c.25-.23.427-.437.393-.46-.035-.02-.27.17-.52.423-.57.575-.486.6.127.036zm-.19-.182l.435-.408-.15-.158-.147-.158-.36.403c-.197.22-.374.388-.392.37-.02-.02.124-.217.316-.44.344-.397.35-.406.224-.528-.123-.122-.13-.12-.253.048-.07.094-.092.15-.05.124.16-.1.068.126-.194.473l-.273.36.15.16c.084.088.175.16.204.16.03 0 .25-.183.49-.407zm-.302-.08c.2-.207.374-.375.387-.375.053 0-.535.634-.64.69-.06.03.054-.11.253-.316zm5.127-3.672c.243-.252.247-.263.125-.373-.117-.106-.13-.106-.217.005-.084.108-.082.11.024.027.09-.07.116-.072.116-.007 0 .047-.62.714-1.375 1.484-2.373 2.415-2.563 2.642-.714.854.985-.952 1.903-1.848 2.04-1.99zM6.573 6.384c.32-.412.358-.483.26-.483-.068 0-.66.805-.712.97-.048.152-.016.118.453-.486zm-.218-.172c.276-.354.335-.47.27-.53-.062-.062-.163.013-.456.336-.207.228-.398.415-.426.414-.117 0-.027-.15.312-.516.335-.36.353-.398.253-.5s-.133-.07-.43.392c-.175.274-.318.512-.318.528 0 .08.36.423.398.38l.395-.504zm-.71-.296l.184-.313-.234.26c-.226.25-.286.372-.183.368.027 0 .132-.142.233-.314zM5.33 5.86c.062-.096.08-.154.04-.13-.077.048-.23.304-.183.304.015 0 .08-.078.142-.174zm5.503-.357c.18-.182.312-.33.294-.33-.018 0-.18.148-.36.33s-.312.332-.293.332c.018 0 .18-.15.36-.332zm-5.487-.1c.272-.352.415-.45.415-.284 0 .06.02.06.082-.002.063-.064.017-.144-.216-.375L5.33 4.45l-.356.5c-.22.307-.332.522-.294.56.038.038.173-.09.35-.337.16-.22.33-.4.378-.4.144 0 .103.098-.21.502-.165.212-.3.41-.3.44 0 .15.196.015.448-.31zm.224.117c.082-.105.08-.107-.025-.025-.064.05-.116.102-.116.116 0 .056.053.02.14-.09zm6.918-1.125c.446-.468.508-.56.434-.65-.077-.092-.102-.087-.242.044-.086.08-.14.158-.125.175.052.052-.1.29-.516.81-.42.523-.385.493.448-.38zm-7.684.344c.304-.404.338-.47.267-.513-.013-.01-.208.158-.432.372-.326.31-.392.405-.33.48.042.05.097.092.122.092.025 0 .194-.195.374-.433zm-.248-.253c.35-.352.4-.433.32-.5-.078-.065-.154.002-.434.38-.302.406-.38.54-.32.54.01 0 .205-.19.434-.42zm-.45.015c.067-.123.06-.126-.082-.046-.084.047-.164.092-.177.098-.013.007 0 .045.02.084.056.09.146.038.24-.136zm-.255-.11c.203-.234.2-.308 0-.12-.114.108-.21.205-.21.216 0 .062.127.005.213-.095zm8.31-.082c.066-.073.105-.133.087-.133-.018 0-.087.06-.154.133-.066.073-.105.133-.087.133.018 0 .087-.06.154-.133zm-8.156-.36c.317-.286.38-.376.316-.442-.065-.067-.155-.005-.445.31-.2.215-.364.415-.366.442-.01.107.11.033.494-.31zm-.49.045c.083-.105.08-.108-.024-.025-.11.087-.146.14-.09.14.013 0 .065-.05.115-.115zm.455-.81c0-.02-.032-.08-.07-.135-.054-.082-.137-.024-.465.32-.33.348-.386.437-.32.518.07.083.14.04.468-.285.213-.21.387-.4.386-.418zm8.687.314c0-.04-.042-.033-.1.014-.054.046-.1.093-.1.106s.046.006.1-.015c.056-.02.1-.07.1-.106z"/></svg>