<?xml version="1.0" encoding="UTF-8" standalone="no"?>
<!-- Created with Inkscape (http://www.inkscape.org/) -->
<svg id="svg2" xmlns:rdf="http://www.w3.org/1999/02/22-rdf-syntax-ns#" xmlns="http://www.w3.org/2000/svg" height="4.5156mm" viewBox="0 0 16.000001 16.000001" width="4.5156mm" version="1.1" xmlns:cc="http://creativecommons.org/ns#" xmlns:dc="http://purl.org/dc/elements/1.1/">
 <metadata id="metadata7">
  <rdf:RDF>
   <cc:Work rdf:about="">
    <dc:format>image/svg+xml</dc:format>
    <dc:type rdf:resource="http://purl.org/dc/dcmitype/StillImage"/>
    <dc:title/>
   </cc:Work>
  </rdf:RDF>
 </metadata>
 <g id="g5238" transform="translate(-456.89,-175.22)">
  <rect id="rect4662" height="16" width="16" y="175.22" x="456.89" fill="none"/>
  <path id="path4658" d="m468.95 188.38c0-0.0826-0.026-0.0879-0.1383-0.0278-0.1753 0.0938-0.2403 0.034-0.1203-0.11057 0.082-0.0987 0.024-0.17451-0.5335-0.69864-0.4218-0.39653-0.6472-0.56606-0.6925-0.5208-0.1087 0.10872-0.1634 0.0772-0.1245-0.0716 0.029-0.10957-0.1082-0.28367-0.6515-0.82886-0.3783-0.37959-0.7274-0.69016-0.7758-0.69016-0.048 0-0.073-0.0249-0.054-0.0553s-0.211-0.29639-0.5106-0.591l-0.5448-0.53568-2.0053 2.0759c-1.6041 1.6607-2.0372 2.074-2.165 2.0664-0.1106-0.007-0.1448-0.0362-0.1112-0.0963 0.032-0.0568-0.1129-0.24404-0.4193-0.54266-0.2573-0.25076-0.4451-0.47862-0.4173-0.50636 0.028-0.0278 0.1141 0.0132 0.1919 0.091l0.1415 0.14149 0.3532-0.30182c0.1944-0.16601 0.336-0.32994 0.3147-0.3643-0.021-0.0344 1.1677-1.2768 2.642-2.7609 1.4742-1.4842 3.2599-3.2942 3.9681-4.0223l1.2876-1.3238-1.6468 1.6222c-0.9058 0.89222-1.9938 1.9504-2.4178 2.3516-0.4239 0.40117-1.6269 1.5724-2.6733 2.6026-1.0463 1.0303-1.9425 1.8732-1.9914 1.8732-0.049 0 0.8141-0.90343 1.9178-2.0076l2.0068-2.0076-0.2559-0.24994c-0.225-0.21964-0.2663-0.23751-0.3411-0.14742-0.1153 0.1389-0.2267 0.12999-0.169-0.0135 0.026-0.0638 0.062-0.15334 0.081-0.19893 0.019-0.0467-0.014-0.0829-0.077-0.0829-0.061 0-0.096-0.0238-0.078-0.0529s-0.6441-0.72675-1.4714-1.5503c-0.8273-0.82356-1.5584-1.5577-1.6246-1.6313-0.1176-0.13101-0.113-0.14176 0.2089-0.4887 0.1811-0.1951 0.3881-0.42783 0.4599-0.51717 0.1271-0.15791 0.1356-0.15925 0.305-0.0482 0.096 0.0628 0.6246 0.55364 1.175 1.0908 0.5505 0.53711 1.0428 0.98622 1.0942 0.99801 0.051 0.0118 0.093 0.064 0.093 0.11604 0 0.052 0.024 0.0946 0.053 0.0946s0.2149 0.16215 0.4129 0.36034c0.2939 0.29419 0.3777 0.34593 0.4568 0.28181 0.08-0.065 0.089-0.0569 0.05 0.0471-0.057 0.15235 0.1243 0.37926 0.2614 0.32668 0.061-0.0235 0.082-0.003 0.058 0.0574-0.02 0.0514 0.035 0.16015 0.1219 0.24167 0.1398 0.13137 0.1674 0.13666 0.2422 0.0466 0.1384-0.16674 0.2248-0.11514 0.1074 0.0641-0.3163 0.48273 0.248-0.0214 2.1157-1.8898 1.1302-1.1306 2.0806-2.0556 2.1121-2.0556 0.031 0 0.038 0.0491 0.015 0.10906-0.052 0.13466 0.1365 0.35511 0.3032 0.35511 0.067 0 0.1223 0.0448 0.1223 0.0995 0 0.12521 0.033 0.1246 0.2293-0.004 0.1507-0.0987 0.1566-0.097 0.1223 0.0342-0.02 0.0759-0.065 0.15555-0.099 0.17706-0.035 0.0215 0 0.10955 0.084 0.19564l0.147 0.15653-0.9522 0.98031c-0.5238 0.53917-1.4433 1.4782-2.0435 2.0868-0.922 0.93485-1.0784 1.1219-1.0085 1.2062 0.046 0.0549 0.1276 0.0825 0.1824 0.0615 0.066-0.0252 0.092-0.004 0.078 0.0623-0.024 0.11412 1.8624 2.0508 1.9471 1.9985 0.03-0.0183 0.054 0.006 0.054 0.0545 0 0.0483 0.373 0.45989 0.8289 0.91467s0.8289 0.8673 0.8289 0.91671c0 0.10072-0.9153 1.1389-1.0041 1.1389-0.031 0-0.057-0.0458-0.057-0.1018zm-4.404-4.1611c3.7443-3.7526 4.3859-4.4287 4.1733-4.3975-0.1255 0.0184-0.5042 0.37557-0.4652 0.43868 0.035 0.0561-6.0813 6.1619-7.0409 7.0293-0.4227 0.38206-0.6616 0.64441-0.6394 0.70223 0.019 0.0508 0.055 0.0912 0.078 0.0898 0.024-0.001 1.7758-1.7395 3.8942-3.8625zm3.7409-3.9802c0-0.0114 0.097-0.10839 0.2155-0.2155l0.2155-0.19476-0.1948 0.21551c-0.1815 0.20088-0.2362 0.24598-0.2362 0.19475zm1.087 7.3848c0.1785-0.16618 0.3075-0.25331 0.2868-0.19362-0.029 0.082-0.01 0.10032 0.091 0.0749 0.1879-0.0491 0.193-0.0991 0.028-0.27166l-0.148-0.15456-0.3507 0.40322c-0.1929 0.22177-0.3807 0.40321-0.4174 0.40321-0.037 0-0.011-0.061 0.056-0.13547 0.1193-0.13181 0.1193-0.13419 0-0.0882-0.1393 0.0534-0.131 0.0339 0.1783-0.42285 0.1788-0.26415 0.317-0.3603 0.317-0.22059 0 0.0337-0.077 0.16049-0.172 0.28181-0.1253 0.16058-0.1068 0.14948 0.068-0.0408 0.2181-0.23775 0.2303-0.27074 0.1351-0.3647-0.095-0.0938-0.1436-0.0605-0.5265 0.36087l-0.4218 0.46416 0.1716 0.18114c0.1949 0.20582 0.1818 0.21098 0.7056-0.27684zm-8.7577-0.12222c0.1028-0.13543 0.5939-0.67891 1.0914-1.2077 0.4975-0.52882 0.6968-0.7672 0.443-0.52974-0.2538 0.23745-0.7972 0.72805-1.2075 1.0902-0.4102 0.36216-0.7459 0.67663-0.7459 0.69883 0 0.0516 0.1475 0.20026 0.1956 0.19708 0.02-0.001 0.1206-0.11323 0.2234-0.24866zm8.2251-0.42281c0.2472-0.28748 0.3534-0.45818 0.3041-0.4887-0.045-0.0278-0.1981 0.0928-0.3757 0.29576-0.3835 0.4385-0.4645 0.38095-0.09-0.0637 0.2546-0.30185 0.3184-0.52827 0.149-0.52827-0.032 0-0.2401 0.20403-0.4617 0.45341l-0.403 0.4534 0.2087 0.20866c0.1147 0.11477 0.2265 0.18675 0.2484 0.15996 0.022-0.0268 0.2108-0.24753 0.4198-0.49052zm-3.472-4.0748c1.1467-1.1563 1.668-1.7146 1.2598-1.3493-0.8609 0.77056-5.4373 5.307-5.4373 5.39 0 0.0905 1.9733-1.8182 4.1775-4.0407zm2.4859 4.0183c-0.023-0.037 0.1436-0.26022 0.37-0.49599 0.3472-0.36149 0.3986-0.44445 0.328-0.52946-0.046-0.0554-0.1051-0.10079-0.1314-0.10079-0.026 0-0.2169 0.21368-0.4235 0.47485-0.3552 0.44885-0.3697 0.48153-0.2654 0.59678 0.1195 0.13198 0.1895 0.16324 0.1223 0.0546zm-6.9618-0.33054c0.066-0.0729 0.1051-0.13262 0.087-0.13262-0.018 0-0.087 0.0597-0.1532 0.13262-0.066 0.0729-0.1051 0.13262-0.087 0.13262 0.018 0 0.087-0.0597 0.1532-0.13262zm7.0294-0.56362 0.3827-0.46417-0.4702 0.45917c-0.2587 0.25254-0.4534 0.48639-0.4329 0.51967 0.043 0.0696 0.019 0.0929 0.5204-0.51467zm-0.2096-0.0752c0.2061-0.22369 0.3747-0.4354 0.3747-0.47046 0-0.0351-0.056-0.11447-0.1245-0.17648-0.1191-0.10776-0.1319-0.10018-0.29 0.17208-0.2105 0.3624-0.4475 0.83082-0.4475 0.88447 0 0.0883 0.1269-0.0184 0.4873-0.40961zm-4.0014-1.9788c0.456-0.43854 1.321-1.2449 1.9221-1.792 0.6012-0.54704 1.541-1.4385 2.0885-1.9809l0.9955-0.9863-1.0938 1.0194c-0.6015 0.5607-1.4476 1.355-1.8801 1.7651-0.4324 0.41011-0.8114 0.73013-0.8421 0.71115-0.059-0.0365-2.2495 2.0644-3.1472 3.0184-0.5244 0.5573-0.5213 0.5553 0.2991-0.19729 0.4559-0.41817 1.202-1.1191 1.658-1.5576zm0.9944-1.0545c0-0.0138 0.052-0.066 0.116-0.11604 0.1052-0.0825 0.1075-0.0801 0.025 0.025-0.087 0.11045-0.1411 0.14558-0.1411 0.091zm2.598 2.9095 0.1262-0.26524-0.2307 0.26346c-0.1817 0.20756-0.2145 0.28296-0.1544 0.35539 0.064 0.077 0.081 0.0773 0.1045 0.002 0.016-0.0496 0.085-0.20951 0.1544-0.35539zm-0.4098 0.0331c0-0.0365-0.013-0.0663-0.029-0.0663s-0.048 0.0298-0.07 0.0663c-0.023 0.0365-0.01 0.0663 0.029 0.0663s0.07-0.0298 0.07-0.0663zm0.3571-0.77913c0.426-0.44921 0.18-0.3258-0.2842 0.14252-0.2362 0.23837-0.4007 0.45642-0.3753 0.49757 0.028 0.0456 0.1107-0.008 0.2187-0.14252 0.095-0.11866 0.2938-0.34257 0.4408-0.49757zm-0.3589 0.0317c0.3281-0.348 0.4055-0.46679 0.3441-0.52817-0.061-0.0614-0.1652 0.0135-0.4617 0.33295-0.2104 0.22667-0.4213 0.41213-0.4686 0.41213-0.096 0-0.024-0.10672 0.4407-0.65176 0.173-0.20289 0.2561-0.34978 0.2128-0.37649-0.039-0.0241-0.1259 0.0258-0.1932 0.11094-0.067 0.0851-0.2428 0.30395-0.3902 0.4863l-0.2679 0.33155 0.1726 0.18166c0.095 0.0999 0.176 0.17451 0.1803 0.16577 0-0.009 0.1983-0.21793 0.4311-0.46488zm-0.5025-0.52104c0.2072-0.26 0.3577-0.49125 0.3345-0.5139-0.054-0.053-0.8898 0.86888-0.8483 0.93601 0.065 0.10527 0.1478 0.0373 0.5138-0.42211zm-0.788-0.18923c0.1029-0.12852 0.1064-0.14492 0.016-0.0748-0.098 0.0761-0.116 0.0754-0.116-0.004 0-0.0519 0.022-0.12307 0.05-0.15822 0.027-0.0351-0.022 0.002-0.1107 0.0824-0.1361 0.12404-0.1472 0.16225-0.073 0.25116 0.048 0.0577 0.091 0.0967 0.095 0.0867 0-0.01 0.067-0.0923 0.1398-0.18281zm0.8811-0.47509c0.057-0.017 0.024-0.0846-0.1-0.20154l-0.1856-0.17601-0.128 0.17709c-0.1279 0.17678-0.1279 0.17688 0.01 0.061 0.3174-0.27634 0.2933-0.0851-0.043 0.34021-0.355 0.44907-0.3349 0.50129 0.05 0.12933 0.1733-0.16753 0.3537-0.31609 0.4011-0.33013zm-1.1471 0.27502c0.066-0.0729 0.1051-0.13262 0.087-0.13262-0.018 0-0.087 0.0597-0.1532 0.13262-0.066 0.0729-0.1051 0.13262-0.087 0.13262 0.018 0 0.087-0.0597 0.1532-0.13262zm0.7047-0.71282c0.082-0.10517 0.08-0.10752-0.025-0.025-0.064 0.05-0.1161 0.10227-0.1161 0.11604 0 0.0546 0.054 0.0194 0.1411-0.091zm-0.046-0.22287c-0.035-0.0572-0.1625-0.042-0.2844 0.0341-0.072 0.0447-0.073 0.0667-0.01 0.10809 0.091 0.0562 0.338-0.0648 0.2902-0.14218zm0.1413-0.40707 0.1948-0.2155-0.2155 0.19475c-0.2009 0.18154-0.246 0.23626-0.1948 0.23626 0.011 0 0.1084-0.097 0.2155-0.21551zm-1.7364-0.34211c0.2508-0.23037 0.4275-0.4364 0.3928-0.45785-0.035-0.0215-0.2689 0.16842-0.5204 0.42193-0.5704 0.57473-0.4851 0.59874 0.1276 0.0359zm-0.1908-0.18158 0.4358-0.40766-0.1486-0.15818-0.1486-0.15818-0.3591 0.40311c-0.1975 0.22171-0.3743 0.3879-0.3929 0.36931-0.019-0.0186 0.124-0.21588 0.3168-0.43843 0.344-0.39716 0.3482-0.40693 0.2241-0.52852-0.1235-0.12111-0.1292-0.12003-0.2537 0.0485-0.07 0.0948-0.092 0.15073-0.05 0.12434 0.1607-0.0993 0.068 0.12584-0.1939 0.47327l-0.2716 0.3597 0.1505 0.16022c0.083 0.0881 0.1741 0.16022 0.2029 0.16022 0.029 0 0.2484-0.18344 0.4881-0.40765zm-0.3006-0.0811c0.1993-0.20527 0.3734-0.37323 0.3869-0.37323 0.053 0-0.5355 0.6334-0.6392 0.6882-0.061 0.032 0.053-0.10969 0.2523-0.31497zm5.1265-3.671c0.2431-0.2515 0.2468-0.26237 0.1255-0.37213-0.1178-0.10663-0.1302-0.10637-0.2173 0.005-0.084 0.10705-0.082 0.10947 0.024 0.0267 0.091-0.071 0.1161-0.0725 0.1161-0.007 0 0.0465-0.6187 0.71403-1.3748 1.4835-2.3737 2.4155-2.5631 2.6421-0.714 0.85405 0.9847-0.95216 1.9031-1.8478 2.0409-1.9902zm-5.5718 2.9183c0.3193-0.4117 0.3576-0.48255 0.2614-0.48255-0.069 0-0.6603 0.80385-0.713 0.9689-0.049 0.15174-0.017 0.11744 0.4516-0.48635zm-0.2184-0.17179c0.2761-0.3538 0.3349-0.46886 0.2713-0.53047-0.063-0.0613-0.1641 0.013-0.4566 0.33621-0.2065 0.2282-0.3978 0.41469-0.4252 0.41444-0.1171-0.001-0.027-0.14986 0.3119-0.51608 0.3346-0.36142 0.3535-0.39862 0.2532-0.49892s-0.1322-0.0712-0.4279 0.39032c-0.1758 0.27428-0.3195 0.51227-0.3195 0.52887 0 0.0797 0.361 0.42289 0.398 0.37837 0.023-0.028 0.201-0.25426 0.3948-0.50274zm-0.709-0.29628 0.1834-0.31287-0.2331 0.2597c-0.2259 0.25171-0.286 0.37246-0.1833 0.36814 0.027-0.001 0.1322-0.14289 0.233-0.31497zm-0.3167-0.0558c0.063-0.0957 0.081-0.15368 0.041-0.12893-0.077 0.0473-0.2309 0.30286-0.183 0.30286 0.015 0 0.079-0.0783 0.1418-0.17393zm5.5044-0.35654c0.1797-0.18235 0.3117-0.33154 0.2934-0.33154-0.018 0-0.1801 0.14919-0.3597 0.33154s-0.3116 0.33155-0.2934 0.33155c0.018 0 0.1801-0.1492 0.3597-0.33155zm-5.4874-0.0997c0.2721-0.35233 0.4148-0.45032 0.4148-0.28488 0 0.0612 0.019 0.0609 0.081-0.001 0.063-0.0635 0.017-0.14369-0.2155-0.37491l-0.2963-0.29412-0.3558 0.49992c-0.2193 0.30827-0.332 0.52356-0.294 0.5616 0.038 0.038 0.1725-0.0912 0.3507-0.3372 0.1589-0.21938 0.3285-0.39888 0.3769-0.39888 0.1442 0 0.1036 0.0965-0.2104 0.50093-0.1641 0.21135-0.2984 0.40889-0.2984 0.43899 0 0.15138 0.1954 0.0158 0.4472-0.31024zm0.2243 0.11629c0.082-0.10517 0.08-0.10751-0.025-0.025-0.064 0.05-0.116 0.10227-0.116 0.11604 0 0.0546 0.054 0.0195 0.141-0.091zm6.9179-1.1254c0.4458-0.46774 0.5074-0.55988 0.4337-0.64872-0.077-0.0927-0.1022-0.0882-0.2415 0.0426-0.086 0.0804-0.1418 0.15989-0.125 0.1767 0.052 0.0514-0.1 0.28889-0.516 0.80883-0.4193 0.5241-0.384 0.49425 0.4488-0.3794zm-7.6846 0.34397c0.3041-0.40264 0.338-0.46742 0.2677-0.51162-0.014-0.009-0.2095 0.15813-0.4333 0.37165-0.3264 0.31133-0.3918 0.40654-0.3302 0.48074 0.042 0.0509 0.097 0.0925 0.1226 0.0925 0.025 0 0.1932-0.19498 0.3732-0.43329zm-0.2474-0.25183c0.3485-0.35158 0.4006-0.43276 0.3207-0.49911-0.079-0.0653-0.1552 0.001-0.4347 0.37825-0.3019 0.40733-0.3811 0.54074-0.3206 0.54074 0.01 0 0.2057-0.18894 0.4346-0.41988zm-0.4495 0.0153c0.066-0.12291 0.06-0.12606-0.083-0.046-0.084 0.0473-0.1635 0.0914-0.1763 0.0981-0.013 0.007 0 0.0445 0.021 0.084 0.055 0.0889 0.145 0.0374 0.2378-0.13602zm-0.2561-0.10931c0.202-0.23516 0.2004-0.30915 0-0.12022-0.115 0.10712-0.2092 0.2041-0.2092 0.21551 0 0.0618 0.1253 0.005 0.2118-0.0953zm8.309-0.0829c0.066-0.0729 0.1051-0.13262 0.087-0.13262-0.018 0-0.087 0.0597-0.1532 0.13262-0.066 0.0729-0.1051 0.13262-0.087 0.13262 0.018 0 0.087-0.0597 0.1532-0.13262zm-8.156-0.36094c0.3174-0.28537 0.3814-0.37465 0.3162-0.44145-0.065-0.067-0.1543-0.005-0.4446 0.30959-0.1996 0.21634-0.3643 0.41572-0.3659 0.44307-0.01 0.10708 0.1121 0.0324 0.4943-0.31121zm-0.4889 0.046c0.082-0.10517 0.08-0.10751-0.025-0.025-0.1104 0.0866-0.1456 0.14107-0.091 0.14107 0.014 0 0.066-0.0522 0.116-0.11604zm0.4547-0.81021c0-0.0194-0.031-0.08-0.068-0.13469-0.055-0.0816-0.1387-0.0239-0.4667 0.32049-0.3306 0.34713-0.3859 0.43686-0.319 0.51745 0.069 0.0827 0.1394 0.0396 0.4677-0.28526 0.2127-0.21052 0.3863-0.39861 0.3857-0.41799zm8.6875 0.31426c0-0.0388-0.042-0.0324-0.099 0.0152-0.055 0.0454-0.1 0.0929-0.1 0.1055s0.045 0.006 0.1-0.0152c0.055-0.021 0.099-0.0685 0.099-0.1055z"/>
 </g>
</svg>
