<svg xmlns="http://www.w3.org/2000/svg" height="4.516mm" viewBox="0 0 16.000001 15.999999" width="4.516mm"><path fill="none" d="M0 0h16v16H0z"/><path d="M7.61 14.37c-.007-.007-.206-.033-.442-.057-.46-.046-.845-.135-1.19-.274-.117-.048-.214-.068-.214-.045s-.076-.012-.17-.08c-.135-.095-.194-.1-.287-.023-.098.08-.11.073-.067-.042.06-.163-.095-.187-.25-.04-.082.08-.092.07-.053-.063.04-.132-.015-.2-.283-.35-.183-.104-.37-.24-.418-.304-.052-.07-.126-.09-.188-.052-.062.04-.083.034-.053-.015.065-.106-.302-.45-.41-.382-.045.028-.082 0-.082-.065s-.045-.165-.1-.222c-.055-.058-.18-.218-.276-.358-.11-.158-.22-.236-.29-.208-.078.03-.102.007-.073-.068.023-.062-.083-.323-.236-.58-.33-.556-.703-1.695-.78-2.384-.03-.27-.09-.493-.134-.493-.047 0-.04-.05.017-.12.07-.084.073-.117.007-.117-.064 0-.068-.043-.012-.148.043-.082.074-.25.07-.375-.017-.394.374-1.713.7-2.364.603-1.204 1.644-2.238 2.9-2.88.365-.186.716-.345.78-.353.065-.008.388-.073.72-.144 1.072-.23 2.248-.145 3.29.24.304.113.632.21.728.214.097.005.176.045.176.09 0 .096.466.392.47.298 0-.035.038 0 .082.076.044.078.113.12.153.095.04-.025.074.01.074.077 0 .068.025.124.057.125.032 0 .225.16.43.353.202.193.416.333.473.31.07-.026.102.02.098.14-.004.106.034.174.09.162.055-.01.098.05.098.134 0 .2.135.28.277.16.124-.105.15-.02.045.147-.043.07.052.328.274.744.187.35.34.673.34.714 0 .042.053.03.117-.023.073-.06.116-.067.116-.014 0 .046-.035.106-.078.133-.092.058-.105.355-.015.355.034 0 .104-.04.156-.094.07-.073.092-.067.092.03 0 .07-.052.17-.116.222-.12.102-.083.274.044.195.04-.025.072-.01.072.034 0 .043-.035.1-.078.127-.127.08-.093.3.04.248.123-.048.168.145.05.22-.037.022-.087.495-.112 1.05-.036.817-.087 1.136-.266 1.68-.122.37-.283.768-.357.888-.075.12-.194.315-.264.434-.902 1.522-2.728 2.74-4.466 2.98-.385.053-1.25.098-1.28.066zm.172-.21c.133-.164.002-.23-.16-.08-.093.085-.142.097-.142.034 0-.053.178-.272.395-.486.218-.214.366-.39.33-.39-.037 0-.27.21-.52.465-.31.315-.42.478-.35.507.19.076.358.057.447-.05zm.722-.03c.073-.09.076-.113.01-.073-.215.13-.076-.086.31-.48.322-.332.374-.418.25-.418-.088 0-.387.236-.697.552l-.54.553h.28c.17 0 .323-.053.387-.134zm-.19-.207c.035-.057.22-.242.414-.41l.35-.306-.386.41c-.392.416-.49.496-.377.306zm-.407-.673c-.02-.02-.046-.022-.056-.002-.01.02-.212.247-.448.506l-.43.472.487-.47c.266-.257.467-.485.447-.506zm1.197.738c.05-.108.06-.197.026-.197s-.145.09-.246.198c-.176.19-.177.198-.026.198.092 0 .194-.082.246-.198zm-1.82-.317c.363-.33.433-.428.31-.43-.09 0-.34.185-.582.433-.546.56-.338.56.273 0zm2.636.273c1.083-.365 2.104-1.093 2.875-2.048.25-.31.456-.585.456-.608 0-.024-.49.44-1.09 1.033-.602.592-1.137 1.076-1.19 1.076s.525-.63 1.284-1.4c.76-.772 1.418-1.51 1.465-1.64.06-.167-.367.22-1.46 1.323-.85.857-1.578 1.56-1.618 1.56-.04 0-.19.112-.33.25s-.28.227-.31.197c-.058-.06 1.835-2.03 1.928-2.004.08.022 2.023-1.915 2.023-2.018 0-.046-.318.233-.706.62-.865.86-.815.818-.708.61.047-.094.4-.464.782-.82.386-.36.71-.73.73-.833.047-.25-1.232.965-1.503 1.426-.108.182-.296.452-.42.6-.268.322-2.52 2.525-2.437 2.385.1-.17.012-.11-.263.178-.318.333-.225.354.49.113zm-2.793-.773c-.023-.023-.243.166-.488.42l-.447.463.488-.42c.27-.23.47-.44.447-.463zm-.27-.044c0-.044-.176.096-.39.31-.215.214-.39.424-.39.467 0 .044.175-.096.39-.31.214-.213.39-.424.39-.467zm-.73.296c.362-.313.407-.38.297-.443-.102-.058-.214.01-.512.306-.21.21-.382.41-.382.443 0 .14.194.04.597-.308zm-.402-.184c.237-.243.338-.394.263-.394-.067 0-.27.177-.45.394-.18.217-.3.395-.263.395.037 0 .24-.178.45-.395zm3.825-.01c.17-.18.24-.288.153-.243-.2.105-.64.57-.538.57.043 0 .216-.148.385-.327zm-4.08-.126l.373-.372-.254-.135-.255-.135-.38.37c-.22.21-.36.305-.33.22.044-.13.034-.136-.073-.046-.11.093-.09.126.173.287.164.102.315.184.335.184.02 0 .204-.167.41-.372zm-.37-.1c.17-.174.334-.317.368-.317.034 0-.078.143-.25.316-.17.175-.336.317-.366.317-.03 0 .082-.142.25-.316zm4.915.078c.167-.173.287-.316.265-.316-.02 0-.176.143-.343.316s-.287.316-.266.316c.023 0 .177-.142.345-.316zm-1.47-.087c.09-.073.115-.077.076-.012-.04.072.012.1.184.1.3 0 .763-.19.995-.412.175-.167.256-.096.086.076-.067.068-.047.08.08.046.092-.025.184-.07.204-.104.02-.033.23-.156.468-.273.44-.218 1.256-.967 1.595-1.464l.188-.278-.208.192c-.344.315-.236.098.18-.365.216-.238.39-.487.39-.554 0-.105-.018-.106-.13-.014-.114.094-.124.092-.067-.01.036-.065.135-.196.22-.292.093-.105.134-.226.103-.307-.03-.078.004-.195.08-.28.104-.116.13-.318.132-1.03.002-.614-.025-.893-.09-.915-.05-.017-.072-.063-.05-.102.133-.216-.58-1.882-.835-1.95-.083-.02-.133-.084-.113-.14.044-.114-.287-.46-.366-.38-.03.03-.055-.014-.057-.097-.006-.17-.612-.67-1.07-.884-.16-.075-.31-.16-.332-.19-.084-.113-.46-.217-.507-.14-.072.118-.192.088-.192-.05 0-.09-.045-.108-.166-.07-.1.033-.147.023-.12-.024.058-.092-.335-.166-.79-.15-.18.007-.328-.005-.328-.027 0-.05-.705-.005-.858.058-.064.026-.16.04-.214.03-.053-.008-.175.03-.272.084-.097.055-.205.09-.24.08-.035-.01-.36.123-.72.295-1.465.694-2.573 2.297-2.734 3.954-.06.626-.06.56.002 1.183.067.66.123.878.213.822.044-.027.052.043.02.17-.04.16-.03.2.042.156.065-.04.088-.012.07.087-.042.26.664 1.49.806 1.402.036-.023.065.01.065.07 0 .135.26.45.37.45.045 0 .102.054.126.12.058.154.97.75 1.147.75.075 0 .152.044.17.098.025.07.087.053.215-.06l.18-.157-.043.172c-.047.186.06.266.3.228.08-.012.168.012.195.055.057.09.844.203 1.216.177.14-.01.313-.067.387-.128zm-3.172-1.85c-.2-.203-.392-.337-.454-.313-.07.027-.094.002-.066-.072.024-.063-.007-.156-.07-.208-.092-.078.08-.296 1.012-1.29L6.92 8.064 6.6 7.71c-.175-.194-.68-.735-1.123-1.2-.443-.467-.805-.876-.806-.91 0-.032.228-.274.505-.536l.505-.476 1.198 1.206L8.076 7l1.15-1.223c.634-.673 1.193-1.222 1.243-1.22.05.002.164.117.253.257.09.14.203.244.253.233.05-.01.092.03.092.087 0 .06.107.19.237.29l.238.186-1.192 1.21C9.284 7.9 9.144 8.076 9.38 8.034c.035-.006.05.03.033.082-.035.108.313.513.416.483.037-.01.068.018.068.065 0 .147.892 1.102.994 1.063.054-.02.098.017.098.083s.105.234.233.373c.13.14.23.27.225.292-.005.022-.243.26-.528.53l-.52.49-1.178-1.187-1.178-1.186-.3.303c-.167.167-.685.702-1.153 1.19-.466.487-.854.886-.86.886-.006 0-.167-.16-.357-.356zM8.865 8.22c.027.026-.12.22-.325.432-.205.21-.34.404-.3.428.04.025.274-.162.522-.416.41-.42.437-.47.306-.545-.13-.076-.017-.217 1.025-1.293l1.17-1.207-1.287 1.263c-2.47 2.424-4.29 4.262-4.29 4.333 0 .04.705-.63 1.566-1.487.86-.858 1.587-1.537 1.613-1.51zm1.763 2.61l.16-.237-.277.237c-.21.18-.257.262-.194.344.07.09.088.09.116 0 .02-.06.107-.214.196-.344zm-4.474-.397l.585-.63-.614.593c-.338.326-.578.52-.534.434.044-.087 1.278-1.36 2.742-2.832 1.464-1.47 2.647-2.69 2.628-2.708-.018-.02-1.254 1.175-2.746 2.654s-2.73 2.67-2.755 2.645c-.046-.048 4.505-4.652 5.057-5.115.21-.177.317-.318.273-.36-.045-.044-1.185 1.033-2.88 2.718L5.1 10.623l.228.24c.125.133.23.232.233.22.003-.01.27-.304.59-.65zm4.29.24c.145-.153.227-.277.18-.277-.123 0-.65.445-.594.503.086.086.143.055.413-.228zm-.115-.376l.386-.414-.402.384c-.256.245-.437.362-.5.323-.062-.04-.077-.028-.04.03.09.148.148.114.555-.323zm-.276-.256c.233-.238.406-.433.384-.433-.02 0-.23.195-.462.434-.233.24-.407.435-.385.435.022 0 .23-.195.464-.434zm.26-.61c-.046-.077-.884.708-.884.83 0 .038.21-.117.466-.343.256-.225.445-.444.42-.486zm-.23-.213c-.018-.02-.226.157-.46.39-.465.465-.602.442-.155-.024l.272-.285-.318.144c-.476.216-.52.288-.317.508l.174.188.42-.443c.232-.243.405-.458.385-.478zm-.818-.037c.256-.262.394-.463.358-.52-.038-.065-.206.054-.512.36-.402.403-.502.587-.32.587.033 0 .245-.192.474-.427zm-.227-.244c.333-.342.402-.454.326-.53-.075-.077-.165-.025-.425.247l-.33.344.293-.218c.16-.12.293-.18.293-.133s-.157.203-.348.345c-.328.245-.432.378-.293.378.033 0 .25-.195.484-.434zm.234-1.58c1.05-1.063 1.892-1.934 1.87-1.934-.02 0-.898.87-1.948 1.935S7.304 9.29 7.326 9.29c.02 0 .897-.87 1.948-1.933zm.624 1.66c0-.127-.164-.082-.32.09l-.187.205.254-.13c.14-.07.254-.145.254-.163zm-3.16-.436c.256-.26.446-.474.425-.474-.02 0-.247.214-.502.474-.254.26-.445.474-.423.474.02 0 .247-.213.502-.474zm.818-1.064c.232-.237.404-.45.383-.47-.023-.023-.248.172-.5.43-.255.26-.427.473-.384.473.043 0 .268-.196.5-.434zm-.205-.178c.237-.25.415-.47.395-.49-.043-.043-.89.794-.89.88 0 .115.063.065.496-.39zm.24-.663c-.032-.054-.89.81-.89.897 0 .024.208-.156.462-.4.254-.243.447-.467.428-.497zm2.93-1.825c.002-.15-.177.002-.975.83-1.648 1.706-1.782 1.892-.408.566.76-.735 1.384-1.363 1.384-1.396zM7.268 6.39c-.152-.153-.156-.152-.596.277-.335.326-.422.456-.36.533.066.08.174.005.488-.332.223-.238.418-.39.435-.34.017.052-.14.277-.347.5-.374.402-.373.402.078-.037.454-.44.456-.444.303-.6zm-.686.14c.212-.217.362-.416.335-.443-.052-.053-.84.674-.84.775 0 .134.143.04.506-.333zm-.204-.178c.517-.55.42-.666-.11-.134-.23.228-.4.445-.377.48.06.1.07.094.486-.346zm.168-.614c0-.027-.098-.145-.218-.26l-.218-.213-.344.355c-.19.195-.38.355-.423.355-.042 0 .095-.177.305-.393.21-.216.358-.418.327-.45-.03-.03-.227.115-.436.324-.25.25-.417.36-.486.32-.058-.032.022.073.176.235l.28.294.4-.42c.237-.25.4-.372.402-.3 0 .066-.154.277-.345.467-.192.19-.33.376-.308.412.04.065.89-.627.89-.724zM5.53 4.972c0-.06-.07.003-.393.352L4.79 5.7l.37-.353c.203-.194.37-.363.37-.375zm-.818 7.685c.255-.237.34-.363.275-.404-.108-.068-.8.575-.736.682.06.096.06.097.462-.278zm-.196-.202c.284-.25.332-.328.253-.41-.08-.083-.165-.037-.45.246-.192.193-.35.377-.35.412 0 .14.216.044.546-.247zm.546.112c.1-.11.166-.197.144-.197-.02 0-.12.088-.222.197-.1.108-.165.197-.144.197.022 0 .12-.09.222-.197zm-.854-.404c.19-.2.277-.328.19-.282-.188.1-.702.647-.606.647.037 0 .224-.164.416-.364zm.038-.575c-.1-.102-.134-.1-.27.028-.088.08-.142.17-.123.2.02.03-.058.142-.17.246-.113.104-.177.14-.142.078.043-.073.035-.092-.024-.055-.065.04-.064.095.006.208.09.144.116.132.466-.218.328-.326.36-.385.258-.487zm-.517.118c.46-.476.348-.66-.12-.196-.313.312-.433.544-.28.544.034 0 .214-.157.4-.348zm.016.21c.097-.126.095-.128-.03-.03-.074.06-.136.122-.136.138 0 .065.064.023.166-.108zm.066-.922c-.106-.108-.82.61-.74.743.04.065.18-.025.44-.284.256-.256.354-.405.3-.46zm-.238-.318c-.06-.058-.185.034-.423.31-.448.52-.355.632.127.15.268-.266.356-.402.297-.46zm-.437.13c.203-.21.344-.405.313-.436-.057-.058-.805.642-.805.753 0 .135.138.046.492-.317zm-.142-.33c.212-.218.357-.396.324-.396-.084 0-.83.657-.83.73-.002.134.14.04.505-.335zm.195-.706c0-.068-.18.062-.425.307-.234.233-.405.458-.38.498.058.096.805-.65.805-.805zm-.704-.053c.136-.243.233-.456.216-.474-.017-.017-.166.086-.33.23-.252.22-.29.293-.245.473.03.117.066.213.083.213.016 0 .14-.2.276-.443zm.502-.024c.303-.34.064-.23-.27.125-.27.284-.294.33-.112.204.128-.09.3-.237.382-.33zM14.185 8.53c-.002-.178-1.238 1.128-1.24 1.313-.003.065.277-.17.62-.522s.62-.707.62-.79zM3.017 9.2c-.02-.064-.09.002-.173.17l-.138.276.174-.17c.095-.093.157-.217.137-.276zm-.12-.5c.032-.044.058-.133.06-.196 0-.064-.21.095-.468.352-.577.578-.627.84-.06.31.225-.21.435-.42.467-.465zm11.145-.317c.077-.087.14-.193.142-.235.003-.1-.922.822-1.026 1.024-.075.145.557-.42.884-.79zm-11.895.454c.074-.163.15-.332.172-.375.02-.044-.064.01-.19.118-.124.11-.238.204-.253.21-.034.02.066.343.106.343.017 0 .09-.133.164-.296zm12.04-1.2c0-.18-.04-.158-.46.265-.3.3-.473.54-.495.692-.03.22-.006.205.46-.264.345-.345.495-.555.495-.693zM2.865 7.99c-.023-.197-.047-.174-.246.245l-.222.464.247-.246c.182-.18.24-.302.22-.463zm-.798.256c.12-.144.123-.156.012-.07-.306.24-.108-.064.32-.495.312-.31.473-.424.502-.35.023.057.044 0 .046-.13.004-.23-.016-.215-.536.354-.297.326-.542.654-.544.73-.004.18.02.174.2-.038zM14.11 7.142c0-.077-.023-.14-.05-.14-.116 0-.81.84-.81.98 0 .126.09.07.43-.27.236-.236.43-.493.43-.57zm-11.084-.49c-.022-.023-.316.27-.652.648l-.613.688.654-.648c.358-.356.634-.666.612-.69zm.136-.322c.01 0 .04-.106.07-.236.048-.208-.033-.15-.657.472-.425.424-.71.772-.71.866 0 .12.155.005.64-.472.353-.346.648-.63.657-.63zm10.86.438c.005-.063-.15.042-.342.234-.435.43-.466.28-.04-.19.297-.324.42-.65.22-.582-.05.018-.23.196-.4.398-.273.326-.3.396-.253.653l.053.287.378-.342c.207-.188.38-.394.385-.457zM3.497 5.49c.067-.07.21-.275.315-.454.17-.286 2.63-2.847 2.9-3.014.162-.102.03-.164-.175-.08-.103.04-.8.706-1.55 1.48-.752.772-1.252 1.3-1.113 1.175.14-.127.254-.196.254-.155 0 .04-.457.536-1.014 1.1-.558.562-1.014.97-1.014.904 0-.065.33-.453.737-.86.405-.41.717-.776.693-.815-.024-.038.548-.668 1.272-1.4.723-.73 1.248-1.292 1.167-1.248s-.88.81-1.774 1.703c-.895.89-1.627 1.57-1.627 1.51s.675-.778 1.5-1.595c1.27-1.255 1.448-1.46 1.152-1.314-.972.475-2.157 1.657-2.677 2.67-.45.877-.446.983.018.527.557-.548.5-.348-.067.232-.38.39-.473.54-.518.827l-.055.352.728-.707c.4-.39.783-.765.85-.836zM3.17 4.358c.593-.69 1.47-1.554 1.36-1.342-.045.087-.477.548-.96 1.026-.708.703-.785.763-.4.317zM13.82 5.95c-.048-.08-.717.636-.722.772-.002.042.17-.097.383-.31.214-.21.367-.42.34-.46zm-.18-.425c0-.06-.07.003-.392.352l-.348.375.37-.352c.204-.194.37-.363.37-.375zm-.102-.312c-.076-.077-.76.61-.703.705.025.04.206-.088.403-.287.196-.197.33-.385.3-.417zm-.13-.257c0-.072-.14.02-.352.23-.193.192-.35.402-.35.467 0 .07.14-.02.35-.23.193-.192.35-.402.35-.467zm-.18-.143c.093-.242-.107-.255-.328-.023-.123.13-.26.238-.303.238-.044 0 .052-.137.213-.303.24-.248.273-.32.185-.393-.083-.07-.17-.023-.407.222l-.3.31.145.275.146.272.303-.244c.167-.134.323-.294.346-.355zm-.725-.41c.43-.445.284-.595-.155-.16-.3.3-.373.47-.2.47.032 0 .19-.14.355-.31zm-.227-.322c.168-.173.27-.315.227-.315s-.215.142-.383.316c-.167.174-.27.316-.227.316.043 0 .216-.142.383-.315zm-.525-.064c.02-.057-.015-.075-.09-.046-.07.027-.125.083-.125.125 0 .104.177.04.216-.08zm.02-.553c0-.02-.1.068-.218.193-.12.125-.204.256-.188.29.027.058.405-.395.405-.483zm.526.053c-.113-.07-.15-.033-.284.288l-.1.237.24-.23c.174-.168.214-.25.144-.294zm-1.073.126c0-.068-.035-.1-.078-.075-.043.027-.078.083-.078.123 0 .04.035.075.078.075s.078-.056.078-.123zm.254-.654c.032-.014.058-.066.058-.115 0-.048-.156.067-.347.257-.192.19-.33.374-.31.41.023.035.153-.07.29-.23.138-.163.277-.307.31-.322zm.096.303c.104-.212.108-.248.018-.157-.063.065-.142.207-.173.316-.073.25-.017.193.156-.16zm-5.877.02c.097-.124.094-.127-.03-.03-.074.06-.136.123-.136.14 0 .064.064.022.166-.11zm5.17-.058c.07-.11.102-.198.072-.198s.03-.09.13-.197c.32-.347.045-.21-.304.15-.233.24-.303.358-.23.387.176.07.2.062.33-.142zm-.19-.026c0-.095.15-.206.203-.152.02.02-.018.082-.084.136-.074.063-.12.07-.12.016zm-3.86-.798c.34-.35.57-.632.506-.627-.063.007-.414.33-.778.722-.81.866-.594.792.27-.094zm3.86.43c.208-.215.3-.356.23-.356-.066 0-.273.16-.463.355-.207.213-.297.355-.227.355.064 0 .272-.16.46-.355zm0-.452c0-.14-.167-.046-.424.234-.402.436-.338.587.074.177.193-.19.35-.376.35-.41zm-3.475-.033c.298-.32.51-.578.47-.572-.04.007-.316.273-.613.593-.298.32-.508.578-.468.572.038-.006.314-.27.61-.592zm3.007-.01c.08-.097.12-.177.09-.177-.094 0-.53.5-.584.67-.05.156 0 .107.494-.493zm-.81.38c0-.116-.025-.133-.1-.07-.056.047-.1.116-.1.154s.044.07.1.07c.054 0 .1-.07.1-.154zM7.64 2.328c.354-.32.515-.517.465-.567-.042-.042-.086-.06-.097-.04s-.248.275-.526.566c-.278.292-.477.53-.443.53.033 0 .304-.22.6-.488zm.307.204c.172-.157.313-.25.313-.204 0 .045-.097.154-.215.243l-.214.163.198.002c.138.002.324-.126.612-.422.48-.492.42-.678-.086-.27-.18.143-.297.21-.26.15.05-.08-.58.342-.886.597-.017.015.026.027.098.027.07 0 .27-.13.442-.286zm1.364-.108c.21-.216.366-.41.344-.432-.02-.02-.228.155-.46.393-.232.238-.387.432-.344.432.043 0 .25-.176.46-.393zm-.278-.09c.487-.55.324-.586-.21-.046-.335.34-.406.448-.288.442.085-.004.31-.182.498-.395zm.71.06c0-.1-.036-.055-.15.187-.088.187-.086.19.028.045.067-.085.12-.188.12-.23zm.31-.17c.057-.067.065-.117.02-.117-.044 0-.1.053-.125.118-.024.065-.032.12-.018.12.014 0 .07-.055.123-.12zm-1.607-.43c-.02-.018-.112.05-.207.15l-.173.186.207-.15c.113-.082.19-.165.173-.185z"/></svg>