<?xml version="1.0" encoding="UTF-8" standalone="no"?>
<!-- Created with Inkscape (http://www.inkscape.org/) -->
<svg id="svg2" xmlns:rdf="http://www.w3.org/1999/02/22-rdf-syntax-ns#" xmlns="http://www.w3.org/2000/svg" height="4.5156mm" width="4.5156mm" version="1.1" xmlns:cc="http://creativecommons.org/ns#" xmlns:dc="http://purl.org/dc/elements/1.1/" viewBox="0 0 16.000001 16.000001">
 <metadata id="metadata7">
  <rdf:RDF>
   <cc:Work rdf:about="">
    <dc:format>image/svg+xml</dc:format>
    <dc:type rdf:resource="http://purl.org/dc/dcmitype/StillImage"/>
    <dc:title/>
   </cc:Work>
  </rdf:RDF>
 </metadata>
 <g id="layer1" transform="translate(-456.89 -175.22)">
  <g id="g5234">
   <rect id="rect4660" height="16" width="16" y="171.05" x="436.94" fill="none"/>
   <path id="path4656" d="m443.53 184.35c-0.084-0.10271-0.7657-0.81336-1.516-1.5792-0.7502-0.76587-1.5562-1.5937-1.791-1.8396-0.2349-0.24592-0.4668-0.44734-0.5154-0.44759-0.1499-0.00069-0.065-0.10336 0.5153-0.61997l0.5596-0.49849 0.1957 0.16468c0.1076 0.0906 0.2378 0.14851 0.2893 0.12874 0.056-0.0216 0.076-0.007 0.049 0.0362-0.051 0.0823 0.6853 0.85468 0.8147 0.85468 0.047 0 0.078 0.0254 0.068 0.0565-0.024 0.0806 0.9599 1.0692 1.0242 1.0295 0.029-0.0181 0.053 0.008 0.053 0.0572 0 0.0496 0.035 0.12551 0.079 0.16878 0.061 0.0607 0.1061 0.0538 0.1989-0.0302 0.066-0.0599 0.1202-0.1339 0.1202-0.16453 0-0.0306 0.1492-0.24085 0.3316-0.46715 0.1823-0.22629 0.3315-0.46053 0.3315-0.52052 0-0.06 0.059-0.16267 0.1316-0.22816 0.1284-0.11615 0.7868-1.1282 0.734-1.1282-0.015 0 0.094-0.15913 0.241-0.35362 0.1472-0.19449 0.3365-0.47796 0.4205-0.62993 0.1511-0.27318 0.1512-0.27489 0.01-0.15-0.2583 0.22699-0.1508 0.007 0.128-0.26206 0.301-0.29046 0.7892-0.97102 0.7892-1.1003 0-0.0456 0.071-0.15913 0.1586-0.2523 0.1858-0.19835 1.7519-2.6192 1.8363-2.8386l0.058-0.14942 0.5153 0.24888c0.2834 0.13689 0.5542 0.28553 0.6016 0.33031 0.048 0.0448 0.1364 0.10948 0.1977 0.14376 0.1025 0.0574 0.1028 0.072 0 0.18381-0.084 0.0957-2.8517 4.5088-3.4107 5.4384-0.2476 0.41164-2.218 3.5102-2.5623 4.0293-0.1923 0.28994-0.3854 0.53809-0.4291 0.55145-0.044 0.0134-0.1479-0.0597-0.2314-0.16245zm0.8167-0.88299c0.1116-0.19239 0.061-0.15924-0.2985 0.19385-0.2382 0.23426-0.4162 0.4533-0.3955 0.48675 0.049 0.0796 0.5217-0.38373 0.694-0.6806zm-0.1434-0.13694c0.353-0.36708 0.6951-0.76245 0.7602-0.8786 0.065-0.11614-0.2414 0.16181-0.6811 0.61769-0.7441 0.77136-0.8733 0.92832-0.7636 0.92832 0.024 0 0.3316-0.30033 0.6845-0.66741zm0.9515-1.2094c0.036 0.0224 0.046 0.008 0.021-0.0318-0.025-0.0399-0.01-0.0967 0.043-0.12628 0.048-0.0296 0.1874-0.21792 0.3092-0.41851 0.1219-0.20058 0.269-0.4393 0.327-0.53047 0.102-0.16045 0.1013-0.16258-0.023-0.0663-0.3239 0.25084-1.1783 1.0551-1.2739 1.1991-0.058 0.0881 0.1422-0.0785 0.4459-0.37026l0.5523-0.53047-0.4695 0.53047c-0.2583 0.29176-0.7797 0.85157-1.1588 1.244-0.379 0.39245-0.6651 0.73758-0.6357 0.76695 0.029 0.0294 0.4456-0.34272 0.925-0.82688 0.4794-0.48415 0.9013-0.86197 0.9375-0.83959zm-1.1161 0.36245c0-0.0548 0.5178-0.57947 1.1494-1.1659 1.0447-0.96993 1.3977-1.3787 1.694-1.9614 0.058-0.11453-1.2637 1.236-2.8478 2.9095-0.8965 0.947-1.0767 1.1693-1.0117 1.2477 0.066 0.0795 0.1573 0.01 0.5471-0.41744 0.2574-0.28205 0.4684-0.55767 0.469-0.6125zm-0.6289 0.26147c0-0.0175-0.084 0.0484-0.186 0.14642-0.1022 0.098-0.2139 0.17818-0.2481 0.17818-0.034 0 0.6687-0.73846 1.5619-1.641 0.8932-0.90255 1.1615-1.1917 0.5962-0.64262-1.4024 1.3624-1.6623 1.5877-1.721 1.4928-0.032-0.0521-0.1047-0.005-0.2178 0.14089-0.2974 0.38421-0.4723 0.54486-0.5005 0.45999-0.015-0.0437 0.1145-0.24463 0.287-0.44645 0.2118-0.24798 0.2917-0.38876 0.2462-0.43419-0.045-0.0454-0.1678 0.0635-0.3774 0.33593-0.3111 0.40426-0.4192 0.49751-0.3412 0.29432 0.035-0.091 0.025-0.0951-0.059-0.025-0.055 0.0461-0.1009 0.0667-0.1009 0.0459 0-0.0954 0.4278-0.65794 0.5723-0.75263 0.1525-0.0999 0.1552-0.11245 0.05-0.22931-0.1575-0.17403-0.1969-0.1595-0.4288 0.15821-0.1132 0.155-0.2322 0.27455-0.2644 0.26566-0.032-0.009-0.107 0.0575-0.166 0.1475-0.1053 0.16069-0.1 0.17217 0.3089 0.63183l0.4161 0.46817 0.2866-0.28136c0.1577-0.15474 0.2867-0.29564 0.2867-0.3131zm-1.3373-0.66909c0.08-0.10889 0.1471-0.22078 0.1481-0.24866 0-0.0279 0.097-0.14986 0.2142-0.27107l0.2125-0.2204-0.1599-0.13037c-0.1756-0.14332-0.2884-0.0919-0.3055 0.13938-0.01 0.12075 0 0.12411 0.1004 0.0342 0.1892-0.17121 0.2072-0.10986 0.044 0.14893-0.086 0.13677-0.1586 0.27349-0.1605 0.30384 0 0.0303-0.081 0.14224-0.1759 0.24866-0.095 0.10641-0.148 0.19348-0.1181 0.19348 0.03 0 0.1202-0.0891 0.2008-0.19798zm-0.1327-0.17475c0.085-0.13116 0.1236-0.21941 0.086-0.1961-0.1048 0.0648-0.3563 0.43632-0.2947 0.43539 0.03-0.00046 0.1238-0.10813 0.2088-0.23929zm-0.1599-0.5502c0.2959-0.29898 0.3769-0.42139 0.3402-0.5139-0.041-0.10344-0.105-0.06-0.4318 0.293-0.2111 0.22794-0.4239 0.41443-0.473 0.41443-0.049 0 0.1021-0.19314 0.3361-0.4292 0.2339-0.23605 0.4038-0.45072 0.3775-0.47702-0.026-0.0263-0.2404 0.14308-0.4759 0.37641l-0.428 0.42424 0.143 0.15225c0.079 0.0837 0.1612 0.15225 0.1833 0.15225 0.022 0 0.215-0.17661 0.4286-0.39246zm4.9656-2.4034c0.8619-0.78772 1.2119-1.2176 1.6648-2.0447 0.03-0.0547-0.3288 0.30337-0.7973 0.79571-0.4684 0.49234-1.4342 1.493-2.1462 2.2238-1.5173 1.5574-1.9453 2.1444-0.5772 0.79176 0.5173-0.51143 1.3524-1.3064 1.8559-1.7666zm-5.138 1.3613-0.1756-0.17562-0.4215 0.44055-0.4215 0.44054 0.1661 0.16608 0.1661 0.16609 0.431-0.43101 0.431-0.43101-0.1756-0.17562zm-0.419 0.43996c0.2165-0.21882 0.4086-0.39785 0.4268-0.39785 0.018 0-0.144 0.17903-0.3605 0.39785-0.2166 0.21882-0.4087 0.39786-0.4269 0.39786-0.018 0 0.144-0.17904 0.3606-0.39786zm-0.246-0.28436c0.3257-0.32868 0.3961-0.43416 0.3322-0.49808-0.064-0.0639-0.1691 0.006-0.4963 0.33038-0.2283 0.22632-0.4367 0.38996-0.463 0.36365-0.026-0.0263 0.1377-0.23507 0.3645-0.46391l0.4124-0.41608-0.1508-0.14053-0.1509-0.14054-0.4454 0.42321c-0.2527 0.24007-0.4154 0.44183-0.3759 0.46621 0.038 0.0237 0.1492-0.0289 0.2465-0.11676 0.097-0.0879 0.2366-0.20302 0.3096-0.2559 0.1255-0.091 0.1275-0.0891 0.036 0.0365-0.053 0.0729-0.1701 0.21447-0.2606 0.31452l-0.1645 0.1819 0.1562 0.16622c0.086 0.0914 0.1742 0.16622 0.1962 0.16622s0.2261-0.18764 0.4534-0.41698zm5.1528-1.3734c0.7287-0.7294 1.31-1.3262 1.2918-1.3262-0.018 0-0.6294 0.59678-1.3581 1.3262-0.7287 0.7294-1.31 1.3262-1.2918 1.3262 0.018 0 0.6294-0.59678 1.3581-1.3262zm3.0467-3.3818c0.1074-0.16411 0.2392-0.37299 0.2928-0.46416 0.053-0.0912-0.7305 0.6548-1.7423 1.6577-1.5855 1.5714-2.1381 2.1847-2.3902 2.6524-0.1139 0.2112 3.6552-3.5639 3.8397-3.8459zm-1.925 3.1403c0.035-0.091 0.025-0.0951-0.059-0.025-0.1151 0.0955-0.127 0.13388-0.042 0.13388 0.033 0 0.078-0.049 0.101-0.10884zm0.3046-2.0537c0.6744-0.67883 1.1366-1.1811 1.0272-1.1161-0.4132 0.24534-2.4495 2.3503-2.2736 2.3503 0.011 0 0.5721-0.5554 1.2464-1.2342zm1.4537-1.9238c0.3307-0.33285 0.6012-0.63092 0.6012-0.66238 0-0.10028-2.3196 2.2525-2.4591 2.4943-0.08 0.13887 0.1453-0.0608 0.5613-0.49732 0.3825-0.40117 0.9659-1.0017 1.2966-1.3346zm0-0.25189c0.2727-0.27625 0.4718-0.50227 0.4426-0.50227-0.075 0-1.6236 1.4676-1.6666 1.5795-0.047 0.12356 0.6099-0.45492 1.224-1.0773zm0.078-0.48058c0.1246-0.14216 0.1244-0.14467-0.013-0.1884-0.077-0.0244-0.1476-0.0341-0.1574-0.0217-0.1058 0.13532-0.635 0.99995-0.6339 1.0359 0 0.0416 0.4281-0.39649 0.8046-0.82581z"/>
  </g>
  <g id="g5238">
   <rect id="rect4662" height="16" width="16" y="175.22" x="456.89" fill="none"/>
   <path id="path4658" d="m468.95 188.38c0-0.0826-0.026-0.0879-0.1383-0.0278-0.1753 0.0938-0.2403 0.034-0.1203-0.11057 0.082-0.0987 0.024-0.17451-0.5335-0.69864-0.4218-0.39653-0.6472-0.56606-0.6925-0.5208-0.1087 0.10872-0.1634 0.0772-0.1245-0.0716 0.029-0.10957-0.1082-0.28367-0.6515-0.82886-0.3783-0.37959-0.7274-0.69016-0.7758-0.69016-0.048 0-0.073-0.0249-0.054-0.0553s-0.211-0.29639-0.5106-0.591l-0.5448-0.53568-2.0053 2.0759c-1.6041 1.6607-2.0372 2.074-2.165 2.0664-0.1106-0.007-0.1448-0.0362-0.1112-0.0963 0.032-0.0568-0.1129-0.24404-0.4193-0.54266-0.2573-0.25076-0.4451-0.47862-0.4173-0.50636 0.028-0.0278 0.1141 0.0132 0.1919 0.091l0.1415 0.14149 0.3532-0.30182c0.1944-0.16601 0.336-0.32994 0.3147-0.3643-0.021-0.0344 1.1677-1.2768 2.642-2.7609 1.4742-1.4842 3.2599-3.2942 3.9681-4.0223l1.2876-1.3238-1.6468 1.6222c-0.9058 0.89222-1.9938 1.9504-2.4178 2.3516-0.4239 0.40117-1.6269 1.5724-2.6733 2.6026-1.0463 1.0303-1.9425 1.8732-1.9914 1.8732-0.049 0 0.8141-0.90343 1.9178-2.0076l2.0068-2.0076-0.2559-0.24994c-0.225-0.21964-0.2663-0.23751-0.3411-0.14742-0.1153 0.1389-0.2267 0.12999-0.169-0.0135 0.026-0.0638 0.062-0.15334 0.081-0.19893 0.019-0.0467-0.014-0.0829-0.077-0.0829-0.061 0-0.096-0.0238-0.078-0.0529s-0.6441-0.72675-1.4714-1.5503c-0.8273-0.82356-1.5584-1.5577-1.6246-1.6313-0.1176-0.13101-0.113-0.14176 0.2089-0.4887 0.1811-0.1951 0.3881-0.42783 0.4599-0.51717 0.1271-0.15791 0.1356-0.15925 0.305-0.0482 0.096 0.0628 0.6246 0.55364 1.175 1.0908 0.5505 0.53711 1.0428 0.98622 1.0942 0.99801 0.051 0.0118 0.093 0.064 0.093 0.11604 0 0.052 0.024 0.0946 0.053 0.0946s0.2149 0.16215 0.4129 0.36034c0.2939 0.29419 0.3777 0.34593 0.4568 0.28181 0.08-0.065 0.089-0.0569 0.05 0.0471-0.057 0.15235 0.1243 0.37926 0.2614 0.32668 0.061-0.0235 0.082-0.003 0.058 0.0574-0.02 0.0514 0.035 0.16015 0.1219 0.24167 0.1398 0.13137 0.1674 0.13666 0.2422 0.0466 0.1384-0.16674 0.2248-0.11514 0.1074 0.0641-0.3163 0.48273 0.248-0.0214 2.1157-1.8898 1.1302-1.1306 2.0806-2.0556 2.1121-2.0556 0.031 0 0.038 0.0491 0.015 0.10906-0.052 0.13466 0.1365 0.35511 0.3032 0.35511 0.067 0 0.1223 0.0448 0.1223 0.0995 0 0.12521 0.033 0.1246 0.2293-0.004 0.1507-0.0987 0.1566-0.097 0.1223 0.0342-0.02 0.0759-0.065 0.15555-0.099 0.17706-0.035 0.0215 0 0.10955 0.084 0.19564l0.147 0.15653-0.9522 0.98031c-0.5238 0.53917-1.4433 1.4782-2.0435 2.0868-0.922 0.93485-1.0784 1.1219-1.0085 1.2062 0.046 0.0549 0.1276 0.0825 0.1824 0.0615 0.066-0.0252 0.092-0.004 0.078 0.0623-0.024 0.11412 1.8624 2.0508 1.9471 1.9985 0.03-0.0183 0.054 0.006 0.054 0.0545 0 0.0483 0.373 0.45989 0.8289 0.91467s0.8289 0.8673 0.8289 0.91671c0 0.10072-0.9153 1.1389-1.0041 1.1389-0.031 0-0.057-0.0458-0.057-0.1018zm-4.404-4.1611c3.7443-3.7526 4.3859-4.4287 4.1733-4.3975-0.1255 0.0184-0.5042 0.37557-0.4652 0.43868 0.035 0.0561-6.0813 6.1619-7.0409 7.0293-0.4227 0.38206-0.6616 0.64441-0.6394 0.70223 0.019 0.0508 0.055 0.0912 0.078 0.0898 0.024-0.001 1.7758-1.7395 3.8942-3.8625zm3.7409-3.9802c0-0.0114 0.097-0.10839 0.2155-0.2155l0.2155-0.19476-0.1948 0.21551c-0.1815 0.20088-0.2362 0.24598-0.2362 0.19475zm1.087 7.3848c0.1785-0.16618 0.3075-0.25331 0.2868-0.19362-0.029 0.082-0.01 0.10032 0.091 0.0749 0.1879-0.0491 0.193-0.0991 0.028-0.27166l-0.148-0.15456-0.3507 0.40322c-0.1929 0.22177-0.3807 0.40321-0.4174 0.40321-0.037 0-0.011-0.061 0.056-0.13547 0.1193-0.13181 0.1193-0.13419 0-0.0882-0.1393 0.0534-0.131 0.0339 0.1783-0.42285 0.1788-0.26415 0.317-0.3603 0.317-0.22059 0 0.0337-0.077 0.16049-0.172 0.28181-0.1253 0.16058-0.1068 0.14948 0.068-0.0408 0.2181-0.23775 0.2303-0.27074 0.1351-0.3647-0.095-0.0938-0.1436-0.0605-0.5265 0.36087l-0.4218 0.46416 0.1716 0.18114c0.1949 0.20582 0.1818 0.21098 0.7056-0.27684zm-8.7577-0.12222c0.1028-0.13543 0.5939-0.67891 1.0914-1.2077 0.4975-0.52882 0.6968-0.7672 0.443-0.52974-0.2538 0.23745-0.7972 0.72805-1.2075 1.0902-0.4102 0.36216-0.7459 0.67663-0.7459 0.69883 0 0.0516 0.1475 0.20026 0.1956 0.19708 0.02-0.001 0.1206-0.11323 0.2234-0.24866zm8.2251-0.42281c0.2472-0.28748 0.3534-0.45818 0.3041-0.4887-0.045-0.0278-0.1981 0.0928-0.3757 0.29576-0.3835 0.4385-0.4645 0.38095-0.09-0.0637 0.2546-0.30185 0.3184-0.52827 0.149-0.52827-0.032 0-0.2401 0.20403-0.4617 0.45341l-0.403 0.4534 0.2087 0.20866c0.1147 0.11477 0.2265 0.18675 0.2484 0.15996 0.022-0.0268 0.2108-0.24753 0.4198-0.49052zm-3.472-4.0748c1.1467-1.1563 1.668-1.7146 1.2598-1.3493-0.8609 0.77056-5.4373 5.307-5.4373 5.39 0 0.0905 1.9733-1.8182 4.1775-4.0407zm2.4859 4.0183c-0.023-0.037 0.1436-0.26022 0.37-0.49599 0.3472-0.36149 0.3986-0.44445 0.328-0.52946-0.046-0.0554-0.1051-0.10079-0.1314-0.10079-0.026 0-0.2169 0.21368-0.4235 0.47485-0.3552 0.44885-0.3697 0.48153-0.2654 0.59678 0.1195 0.13198 0.1895 0.16324 0.1223 0.0546zm-6.9618-0.33054c0.066-0.0729 0.1051-0.13262 0.087-0.13262-0.018 0-0.087 0.0597-0.1532 0.13262-0.066 0.0729-0.1051 0.13262-0.087 0.13262 0.018 0 0.087-0.0597 0.1532-0.13262zm7.0294-0.56362 0.3827-0.46417-0.4702 0.45917c-0.2587 0.25254-0.4534 0.48639-0.4329 0.51967 0.043 0.0696 0.019 0.0929 0.5204-0.51467zm-0.2096-0.0752c0.2061-0.22369 0.3747-0.4354 0.3747-0.47046 0-0.0351-0.056-0.11447-0.1245-0.17648-0.1191-0.10776-0.1319-0.10018-0.29 0.17208-0.2105 0.3624-0.4475 0.83082-0.4475 0.88447 0 0.0883 0.1269-0.0184 0.4873-0.40961zm-4.0014-1.9788c0.456-0.43854 1.321-1.2449 1.9221-1.792 0.6012-0.54704 1.541-1.4385 2.0885-1.9809l0.9955-0.9863-1.0938 1.0194c-0.6015 0.5607-1.4476 1.355-1.8801 1.7651-0.4324 0.41011-0.8114 0.73013-0.8421 0.71115-0.059-0.0365-2.2495 2.0644-3.1472 3.0184-0.5244 0.5573-0.5213 0.5553 0.2991-0.19729 0.4559-0.41817 1.202-1.1191 1.658-1.5576zm0.9944-1.0545c0-0.0138 0.052-0.066 0.116-0.11604 0.1052-0.0825 0.1075-0.0801 0.025 0.025-0.087 0.11045-0.1411 0.14558-0.1411 0.091zm2.598 2.9095 0.1262-0.26524-0.2307 0.26346c-0.1817 0.20756-0.2145 0.28296-0.1544 0.35539 0.064 0.077 0.081 0.0773 0.1045 0.002 0.016-0.0496 0.085-0.20951 0.1544-0.35539zm-0.4098 0.0331c0-0.0365-0.013-0.0663-0.029-0.0663s-0.048 0.0298-0.07 0.0663c-0.023 0.0365-0.01 0.0663 0.029 0.0663s0.07-0.0298 0.07-0.0663zm0.3571-0.77913c0.426-0.44921 0.18-0.3258-0.2842 0.14252-0.2362 0.23837-0.4007 0.45642-0.3753 0.49757 0.028 0.0456 0.1107-0.008 0.2187-0.14252 0.095-0.11866 0.2938-0.34257 0.4408-0.49757zm-0.3589 0.0317c0.3281-0.348 0.4055-0.46679 0.3441-0.52817-0.061-0.0614-0.1652 0.0135-0.4617 0.33295-0.2104 0.22667-0.4213 0.41213-0.4686 0.41213-0.096 0-0.024-0.10672 0.4407-0.65176 0.173-0.20289 0.2561-0.34978 0.2128-0.37649-0.039-0.0241-0.1259 0.0258-0.1932 0.11094-0.067 0.0851-0.2428 0.30395-0.3902 0.4863l-0.2679 0.33155 0.1726 0.18166c0.095 0.0999 0.176 0.17451 0.1803 0.16577 0-0.009 0.1983-0.21793 0.4311-0.46488zm-0.5025-0.52104c0.2072-0.26 0.3577-0.49125 0.3345-0.5139-0.054-0.053-0.8898 0.86888-0.8483 0.93601 0.065 0.10527 0.1478 0.0373 0.5138-0.42211zm-0.788-0.18923c0.1029-0.12852 0.1064-0.14492 0.016-0.0748-0.098 0.0761-0.116 0.0754-0.116-0.004 0-0.0519 0.022-0.12307 0.05-0.15822 0.027-0.0351-0.022 0.002-0.1107 0.0824-0.1361 0.12404-0.1472 0.16225-0.073 0.25116 0.048 0.0577 0.091 0.0967 0.095 0.0867 0-0.01 0.067-0.0923 0.1398-0.18281zm0.8811-0.47509c0.057-0.017 0.024-0.0846-0.1-0.20154l-0.1856-0.17601-0.128 0.17709c-0.1279 0.17678-0.1279 0.17688 0.01 0.061 0.3174-0.27634 0.2933-0.0851-0.043 0.34021-0.355 0.44907-0.3349 0.50129 0.05 0.12933 0.1733-0.16753 0.3537-0.31609 0.4011-0.33013zm-1.1471 0.27502c0.066-0.0729 0.1051-0.13262 0.087-0.13262-0.018 0-0.087 0.0597-0.1532 0.13262-0.066 0.0729-0.1051 0.13262-0.087 0.13262 0.018 0 0.087-0.0597 0.1532-0.13262zm0.7047-0.71282c0.082-0.10517 0.08-0.10752-0.025-0.025-0.064 0.05-0.1161 0.10227-0.1161 0.11604 0 0.0546 0.054 0.0194 0.1411-0.091zm-0.046-0.22287c-0.035-0.0572-0.1625-0.042-0.2844 0.0341-0.072 0.0447-0.073 0.0667-0.01 0.10809 0.091 0.0562 0.338-0.0648 0.2902-0.14218zm0.1413-0.40707 0.1948-0.2155-0.2155 0.19475c-0.2009 0.18154-0.246 0.23626-0.1948 0.23626 0.011 0 0.1084-0.097 0.2155-0.21551zm-1.7364-0.34211c0.2508-0.23037 0.4275-0.4364 0.3928-0.45785-0.035-0.0215-0.2689 0.16842-0.5204 0.42193-0.5704 0.57473-0.4851 0.59874 0.1276 0.0359zm-0.1908-0.18158 0.4358-0.40766-0.1486-0.15818-0.1486-0.15818-0.3591 0.40311c-0.1975 0.22171-0.3743 0.3879-0.3929 0.36931-0.019-0.0186 0.124-0.21588 0.3168-0.43843 0.344-0.39716 0.3482-0.40693 0.2241-0.52852-0.1235-0.12111-0.1292-0.12003-0.2537 0.0485-0.07 0.0948-0.092 0.15073-0.05 0.12434 0.1607-0.0993 0.068 0.12584-0.1939 0.47327l-0.2716 0.3597 0.1505 0.16022c0.083 0.0881 0.1741 0.16022 0.2029 0.16022 0.029 0 0.2484-0.18344 0.4881-0.40765zm-0.3006-0.0811c0.1993-0.20527 0.3734-0.37323 0.3869-0.37323 0.053 0-0.5355 0.6334-0.6392 0.6882-0.061 0.032 0.053-0.10969 0.2523-0.31497zm5.1265-3.671c0.2431-0.2515 0.2468-0.26237 0.1255-0.37213-0.1178-0.10663-0.1302-0.10637-0.2173 0.005-0.084 0.10705-0.082 0.10947 0.024 0.0267 0.091-0.071 0.1161-0.0725 0.1161-0.007 0 0.0465-0.6187 0.71403-1.3748 1.4835-2.3737 2.4155-2.5631 2.6421-0.714 0.85405 0.9847-0.95216 1.9031-1.8478 2.0409-1.9902zm-5.5718 2.9183c0.3193-0.4117 0.3576-0.48255 0.2614-0.48255-0.069 0-0.6603 0.80385-0.713 0.9689-0.049 0.15174-0.017 0.11744 0.4516-0.48635zm-0.2184-0.17179c0.2761-0.3538 0.3349-0.46886 0.2713-0.53047-0.063-0.0613-0.1641 0.013-0.4566 0.33621-0.2065 0.2282-0.3978 0.41469-0.4252 0.41444-0.1171-0.001-0.027-0.14986 0.3119-0.51608 0.3346-0.36142 0.3535-0.39862 0.2532-0.49892s-0.1322-0.0712-0.4279 0.39032c-0.1758 0.27428-0.3195 0.51227-0.3195 0.52887 0 0.0797 0.361 0.42289 0.398 0.37837 0.023-0.028 0.201-0.25426 0.3948-0.50274zm-0.709-0.29628 0.1834-0.31287-0.2331 0.2597c-0.2259 0.25171-0.286 0.37246-0.1833 0.36814 0.027-0.001 0.1322-0.14289 0.233-0.31497zm-0.3167-0.0558c0.063-0.0957 0.081-0.15368 0.041-0.12893-0.077 0.0473-0.2309 0.30286-0.183 0.30286 0.015 0 0.079-0.0783 0.1418-0.17393zm5.5044-0.35654c0.1797-0.18235 0.3117-0.33154 0.2934-0.33154-0.018 0-0.1801 0.14919-0.3597 0.33154s-0.3116 0.33155-0.2934 0.33155c0.018 0 0.1801-0.1492 0.3597-0.33155zm-5.4874-0.0997c0.2721-0.35233 0.4148-0.45032 0.4148-0.28488 0 0.0612 0.019 0.0609 0.081-0.001 0.063-0.0635 0.017-0.14369-0.2155-0.37491l-0.2963-0.29412-0.3558 0.49992c-0.2193 0.30827-0.332 0.52356-0.294 0.5616 0.038 0.038 0.1725-0.0912 0.3507-0.3372 0.1589-0.21938 0.3285-0.39888 0.3769-0.39888 0.1442 0 0.1036 0.0965-0.2104 0.50093-0.1641 0.21135-0.2984 0.40889-0.2984 0.43899 0 0.15138 0.1954 0.0158 0.4472-0.31024zm0.2243 0.11629c0.082-0.10517 0.08-0.10751-0.025-0.025-0.064 0.05-0.116 0.10227-0.116 0.11604 0 0.0546 0.054 0.0195 0.141-0.091zm6.9179-1.1254c0.4458-0.46774 0.5074-0.55988 0.4337-0.64872-0.077-0.0927-0.1022-0.0882-0.2415 0.0426-0.086 0.0804-0.1418 0.15989-0.125 0.1767 0.052 0.0514-0.1 0.28889-0.516 0.80883-0.4193 0.5241-0.384 0.49425 0.4488-0.3794zm-7.6846 0.34397c0.3041-0.40264 0.338-0.46742 0.2677-0.51162-0.014-0.009-0.2095 0.15813-0.4333 0.37165-0.3264 0.31133-0.3918 0.40654-0.3302 0.48074 0.042 0.0509 0.097 0.0925 0.1226 0.0925 0.025 0 0.1932-0.19498 0.3732-0.43329zm-0.2474-0.25183c0.3485-0.35158 0.4006-0.43276 0.3207-0.49911-0.079-0.0653-0.1552 0.001-0.4347 0.37825-0.3019 0.40733-0.3811 0.54074-0.3206 0.54074 0.01 0 0.2057-0.18894 0.4346-0.41988zm-0.4495 0.0153c0.066-0.12291 0.06-0.12606-0.083-0.046-0.084 0.0473-0.1635 0.0914-0.1763 0.0981-0.013 0.007 0 0.0445 0.021 0.084 0.055 0.0889 0.145 0.0374 0.2378-0.13602zm-0.2561-0.10931c0.202-0.23516 0.2004-0.30915 0-0.12022-0.115 0.10712-0.2092 0.2041-0.2092 0.21551 0 0.0618 0.1253 0.005 0.2118-0.0953zm8.309-0.0829c0.066-0.0729 0.1051-0.13262 0.087-0.13262-0.018 0-0.087 0.0597-0.1532 0.13262-0.066 0.0729-0.1051 0.13262-0.087 0.13262 0.018 0 0.087-0.0597 0.1532-0.13262zm-8.156-0.36094c0.3174-0.28537 0.3814-0.37465 0.3162-0.44145-0.065-0.067-0.1543-0.005-0.4446 0.30959-0.1996 0.21634-0.3643 0.41572-0.3659 0.44307-0.01 0.10708 0.1121 0.0324 0.4943-0.31121zm-0.4889 0.046c0.082-0.10517 0.08-0.10751-0.025-0.025-0.1104 0.0866-0.1456 0.14107-0.091 0.14107 0.014 0 0.066-0.0522 0.116-0.11604zm0.4547-0.81021c0-0.0194-0.031-0.08-0.068-0.13469-0.055-0.0816-0.1387-0.0239-0.4667 0.32049-0.3306 0.34713-0.3859 0.43686-0.319 0.51745 0.069 0.0827 0.1394 0.0396 0.4677-0.28526 0.2127-0.21052 0.3863-0.39861 0.3857-0.41799zm8.6875 0.31426c0-0.0388-0.042-0.0324-0.099 0.0152-0.055 0.0454-0.1 0.0929-0.1 0.1055s0.045 0.006 0.1-0.0152c0.055-0.021 0.099-0.0685 0.099-0.1055z"/>
  </g>
  <g id="g5242">
   <rect id="rect4176" height="16" width="16" y="170.92" x="414.08" fill="none"/>
   <path id="path4654" d="m421.32 185.03-0.7114-0.90273-0.199 0.18659c-0.1681 0.15761-0.1873 0.16399-0.1237 0.0411 0.041-0.08 0.1049-0.16384 0.1412-0.18626 0.1107-0.0684 0.075-0.19311-0.1245-0.43186-0.1669-0.19995-0.204-0.21691-0.3-0.13724-0.1474 0.12234-0.2198 0.0362-0.092-0.10994 0.056-0.0641 0.087-0.15593 0.07-0.20418-0.023-0.0646-0.078-0.0472-0.2063 0.0663-0.1403 0.1237-0.152 0.1269-0.059 0.0162 0.1421-0.16957 0.1503-0.30234 0.015-0.25056-0.072 0.0278-0.089 0.008-0.058-0.0709 0.051-0.1319-0.1615-0.38823-0.2828-0.3417-0.1055 0.0405-0.1828-0.0695-0.089-0.12727 0.071-0.0437-0.2159-0.48838-0.5394-0.83732-0.096-0.10374-0.1915-0.22635-0.2118-0.27248-0.02-0.0461-0.2602-0.36619-0.5332-0.71124-0.2729-0.34505-0.4818-0.6509-0.464-0.67967 0.018-0.0288 0.4259-0.0532 0.907-0.0544 0.6639-0.002 0.9057-0.0256 1.0034-0.0995 0.1787-0.13517 0.3487-0.13365 0.236 0.002-0.073 0.0879 0.098 0.0995 1.4709 0.0995 1.553 0 1.5536-0.00006 1.7782-0.16577 0.2856-0.21071 0.3306-0.21071 0.1326 0l-0.1557 0.16577h0.5951c0.3744 0 0.6246-0.0295 0.6746-0.0796 0.062-0.0619 0.08-0.0619 0.08 0 0 0.0589 0.3086 0.0796 1.1897 0.0796 0.6543 0 1.205 0.0248 1.2237 0.0551 0.039 0.0629-0.2976 0.4999-2.7659 3.5918-0.9753 1.2217-1.7993 2.2303-1.8311 2.2412-0.032 0.011-0.3778-0.38633-0.7691-0.88283zm0.9168 0.39669c0.1532-0.21051 0.1128-0.20953-0.086 0.002-0.086 0.0912-0.1282 0.16484-0.095 0.16369 0.034-0.001 0.1149-0.0757 0.1805-0.16577zm-0.1813-0.30762 0.1947-0.21023-0.2155 0.14844c-0.1185 0.0816-0.2155 0.17624-0.2155 0.21023 0 0.0948 0.026 0.0783 0.2363-0.14844zm-0.096-0.33681c0.2007-0.26022 0.2032-0.26911 0.033-0.11604-0.1751 0.1571-0.3445 0.39785-0.2799 0.39785 0.016 0 0.1277-0.12682 0.2473-0.28181zm0.2647-0.47184c0.051-0.008 0.3761-0.2974 0.7226-0.64208 0.3464-0.34468 0.794-0.76021 0.9946-0.92339l0.3647-0.29669-0.2613 0.32985c-0.1438 0.18141-0.4849 0.58348-0.7581 0.89347l-0.4966 0.56363 0.4596-0.44014c0.2528-0.24207 0.5258-0.47385 0.6066-0.51505 0.081-0.0412 0.5263-0.54436 0.9898-1.1181 1.0684-1.3225 1.052-1.2981 0.6239-0.92832-0.3855 0.33299-0.5226 0.36694-0.2713 0.0672 0.084-0.10015-0.4332 0.41448-1.1491 1.1436-1.2489 1.2718-1.5815 1.556-1.0566 0.90247 0.1348-0.16786-0.1354 0.0827-0.6005 0.5568-0.4651 0.47411-0.8214 0.81155-0.7918 0.74986 0.03-0.0617 0.5188-0.61371 1.087-1.2267 1.6325-1.7614 1.649-1.8161 0.077-0.25823-1.4519 1.4394-1.4648 1.4545-1.3549 1.6034l0.1109 0.15031 0.3052-0.29825c0.1678-0.16404 0.3469-0.30517 0.3979-0.31364zm0.3247 0.25633c0.086-0.0912 0.1408-0.16577 0.1226-0.16577-0.018 0-0.1032 0.0746-0.1889 0.16577-0.086 0.0912-0.1408 0.16577-0.1226 0.16577 0.018 0 0.1033-0.0746 0.1889-0.16577zm0.6229-1.9727c1.5665-1.6199 2.0295-2.0483 2.0295-1.8776 0 0.0158-0.2146 0.29182-0.477 0.61336l-0.4769 0.58461 0.8748-0.82293c0.4811-0.45261 0.8748-0.83306 0.8748-0.84544 0-0.0124-0.4252-0.022-0.9449-0.0213l-0.9449 0.001-0.2897 0.34693c-0.1594 0.19082-0.7448 0.83928-1.301 1.441-1.1773 1.2735-1.6902 1.8653-1.691 1.9509 0 0.0336 0.049 0.11575 0.1093 0.18256 0.1049 0.11585 0.1564 0.0758 1.1128-0.8633 0.5516-0.54162 1.0713-1.0214 1.155-1.0662 0.1455-0.0779 0.1485-0.0747 0.071 0.0728-0.045 0.0848-0.5245 0.60378-1.066 1.1532-0.879 0.89194-1.1018 1.1499-0.9317 1.0787 0.029-0.0122 0.8823-0.87998 1.8963-1.9285zm-2.2143 1.4777c0-0.0413 0.8036-0.88677 1.7858-1.8788 1.4304-1.4447 1.8024-1.7873 1.8694-1.7212s-0.2383 0.39916-1.5371 1.6766c-1.6838 1.6561-2.1181 2.0505-2.1181 1.9234zm3.4112-2.9276c0.2897-0.30577 0.5798-0.61397 0.6447-0.68488 0.065-0.0709 0.1364-0.11041 0.1591-0.0878 0.05 0.0498-1.0045 1.1597-1.1955 1.2586-0.074 0.0385 0.102-0.18022 0.3917-0.486zm-3.4607 2.4445c0.091-0.11852 0.6042-0.678 1.1407-1.2433 1.5005-1.5809 1.7709-1.9356 0.6629-0.86927-1.5412 1.4832-2.1487 2.1268-2.1078 2.2332 0.055 0.14315 0.1226 0.11631 0.3042-0.12066zm2.1523-2.6219 0.8098-0.74328-0.4119 0.001-0.412 0.001-1.2267 1.1936c-0.6747 0.65646-1.3461 1.2856-1.4919 1.3981-0.1459 0.1125 0.3763-0.42624 1.1604-1.1972 0.7841-0.77097 1.3773-1.3931 1.3183-1.3826s-0.7192 0.61629-1.4671 1.3461c-1.3245 1.2925-1.357 1.3306-1.252 1.4678 0.1059 0.1384 0.1332 0.11578 1.5475-1.2772 1.3123-1.2926 1.5773-1.5219 1.5773-1.365 0 0.0292-0.6507 0.69951-1.4461 1.4896-1.1441 1.1365-1.4338 1.4588-1.3868 1.5427 0.048 0.0862 0.2298-0.0667 0.9654-0.81267 0.4983-0.50535 1.2704-1.2533 1.7158-1.6621zm-0.7766-0.63929c0 0.0293-0.067 0.12976-0.1486 0.22328-0.082 0.0935-0.035 0.0656 0.1038-0.062l0.2523-0.23208-0.3524-0.0207-0.3524-0.0207-0.4265 0.48485c-0.2345 0.26667-0.7142 0.77392-1.0659 1.1272-0.4999 0.5022-0.6264 0.66563-0.5798 0.74898 0.049 0.0869 0.2921-0.11646 1.3146-1.0977 0.6902-0.66239 1.2549-1.1804 1.2549-1.1511zm-2.4898 1.6366 0.2569-0.31496-0.276 0.26211c-0.2337 0.22186-0.3357 0.36782-0.257 0.36782 0.011 0 0.1348-0.14173 0.2761-0.31497zm-0.2253-0.1267 0.2285-0.24275-0.2487 0.18431c-0.1367 0.10137-0.2486 0.2106-0.2486 0.24275 0 0.0917 0.025 0.0742 0.2688-0.18431zm1.0621-1.3487c0.053 0 0.039 0.0476-0.038 0.13262-0.2251 0.24875 0.01 0.1335 0.2652-0.13262l0.259-0.26524h-0.2136c-0.18 0-0.3384 0.1156-1.0081 0.73598-0.4369 0.40478-0.7944 0.75788-0.7944 0.78466 0 0.17275 0.1616 0.0543 0.766-0.56118 0.375-0.38182 0.7187-0.69422 0.7638-0.69422zm-1.5559 0.95956c0.016-0.1106-0.078-0.1316-0.1397-0.0312-0.048 0.0777 0.028 0.22631 0.086 0.16827 0.022-0.0217 0.046-0.0834 0.054-0.13703zm-0.2936-0.22139c-0.064-0.0407 0.023-0.15519 0.3262-0.42988 0.4174-0.37778 0.6165-0.45869 0.3197-0.12997-0.088 0.0978 0 0.0455 0.1884-0.1163l0.3488-0.2941-0.2764-0.0209c-0.2606-0.0197-0.3002 0.003-0.6933 0.39237-0.3452 0.34213-0.4058 0.43418-0.352 0.53479 0.036 0.0668 0.1013 0.12107 0.1456 0.12051 0.058-0.00068 0.056-0.0167-0.01-0.0565zm7.3798-0.99409c-0.017-0.0173-0.039-0.0183-0.048-0.002-0.01 0.0161-0.1807 0.20751-0.3812 0.42549l-0.3647 0.39632 0.4127-0.39407c0.227-0.21673 0.3985-0.4082 0.3812-0.42548zm-7.5548 0.33333c-0.1473-0.0299-0.3018 0.10875-0.2555 0.22943 0.031 0.08 0.068 0.0699 0.2008-0.0546 0.1354-0.12686 0.1447-0.15653 0.055-0.17484zm1.8871-0.31987c0-0.0125-0.037-0.0218-0.083-0.0206-0.045 0.001-0.2022 0.14273-0.3481 0.31453l-0.2652 0.31237 0.3481-0.29176c0.1915-0.16048 0.3481-0.30202 0.3481-0.31454zm1.1208-0.006c0.016-0.009-0.014-0.016-0.065-0.0154-0.052 0.00069-0.196 0.12748-0.3206 0.28182l-0.2266 0.28061 0.2919-0.26523c0.1606-0.14588 0.3048-0.2727 0.3206-0.28182zm-3.5513 0.08c-0.022-0.0563-0.053-0.0881-0.071-0.0707-0.017 0.0174-0.012 0.0634 0.012 0.10232 0.065 0.10579 0.1035 0.0852 0.059-0.0316zm0.9386-0.0303c0.024-0.0383-0.038-0.0659-0.1453-0.0653-0.1446 0.00069-0.164 0.0154-0.087 0.0653 0.1274 0.0823 0.1812 0.0823 0.2321 0zm2.7518-2.1114c0-0.0333 0.045-0.0977 0.1-0.14307 0.055-0.0454 0.099-0.10436 0.099-0.13101 0-0.086-0.9942-0.13911-1.1403-0.0609-0.098 0.0527-0.1232 0.0525-0.091-0.00046 0.076-0.1225-1.0541-0.0966-1.1563 0.0265-0.045 0.0547-0.1273 0.0995-0.182 0.0995-0.083 0-0.085-0.0174-0.013-0.1039 0.078-0.0937-0.01-0.10231-0.8863-0.0877-0.5349 0.009-0.9921-0.003-1.0159-0.0271-0.024-0.0238-0.014-0.0813 0.023-0.1278 0.036-0.0465 0.8908-1.1218 1.8989-2.3897 1.008-1.2679 1.8255-2.3327 1.8166-2.3663-0.016-0.0618 0.617-0.92471 0.6821-0.92918 0.019-0.001 0.2102 0.20385 0.424 0.45597 0.2646 0.31196 0.4211 0.44598 0.4901 0.4195 0.076-0.0291 0.09-0.009 0.056 0.0792-0.033 0.0849 0.03 0.19301 0.2206 0.38401 0.1462 0.14625 0.2658 0.27944 0.2658 0.29599 0 0.0165 0.037 0.0686 0.083 0.11576 0.046 0.0471 0.1823 0.20567 0.3038 0.35234 0.157 0.18946 0.2578 0.25704 0.3482 0.23341 0.1351-0.0353 0.1693 0.0462 0.064 0.15173-0.1 0.0998 0.636 0.9288 0.8054 0.90737 0.1099-0.0139 0.1286 0.0105 0.098 0.12731-0.028 0.10567 0.037 0.23477 0.2408 0.48034 0.1532 0.18471 0.3278 0.39597 0.3881 0.46947 0.06 0.0735 0.3214 0.386 0.5802 0.69444 0.4844 0.57722 0.5154 0.63039 0.407 0.69738-0.035 0.0216-1.0571 0.0381-2.2715 0.0367-2.1222-0.002-2.211 0.002-2.289 0.12734-0.092 0.14784-0.3491 0.30434-0.3491 0.21278zm-1.0264-1.154c0.3424-0.35252 0.4263-0.45745 0.1976-0.24692-0.2189 0.20137-0.4853 0.43994-0.592 0.53015l-0.1942 0.16403 0.1552-0.23208 0.1551-0.23208-0.2732 0.25943c-0.2598 0.24671-0.3013 0.3705-0.1242 0.3705 0.044 0 0.3482-0.27586 0.6757-0.61303zm0.4987 0.30323 0.2956-0.3098-0.2615 0.2085c-0.6136 0.48918-0.2337 0.0507 1.1166-1.2889 1.0256-1.0173 1.4231-1.4526 1.3727-1.503-0.051-0.0504-0.4505 0.30092-1.3815 1.2132-0.7207 0.70627-1.4742 1.4429-1.6744 1.637l-0.364 0.35284h0.3005c0.2713 0 0.329-0.03 0.596-0.3098zm0.6789 0.0627c0.6508-0.75325 1.7564-1.942 2.0134-2.165l0.2963-0.257-0.1486-0.15813-0.1485-0.15813-0.6675 0.70869c-0.3671 0.38977-0.6674 0.73735-0.6674 0.77238 0 0.035-0.3432 0.38729-0.7626 0.78278l-0.7625 0.71909 0.317 0.001c0.2842 0.001 0.339-0.0244 0.5304-0.24589zm1.3399-1.8996c0.3642-0.34598 0.6748-0.6165 0.6901-0.60117 0.034 0.0341-1.0961 1.1021-1.2454 1.1767-0.059 0.0294 0.1911-0.22957 0.5553-0.57556zm-0.7285 1.7325c0.5944-0.7406 1.2356-1.5751 1.2103-1.5751-0.014 0-0.435 0.44759-0.9363 0.99464-0.7499 0.81818-0.8844 0.99454-0.7586 0.99409 0.1076-0.00046 0.2514-0.12308 0.4846-0.41362zm1.2933-0.61898c0.6002-0.70661 0.856-1.0547 0.8094-1.1012-0.047-0.0466-0.094-0.0187-0.1509 0.0882-0.1793 0.33824-1.7861 1.9762-1.7861 1.8207 0-0.0171 0.1731-0.24943 0.3846-0.51623 0.3403-0.42937 0.565-0.74534 0.4629-0.65085-0.031 0.0284-0.876 1.0686-1.0642 1.3096-0.049 0.0633 0 0.0829 0.201 0.0829 0.2613 0 0.2808-0.0176 1.1433-1.0331zm-0.2719 0.75396c0.1311-0.15356 0.2299-0.30589 0.2195-0.33853-0.01-0.0326 0.016-0.10095 0.058-0.15182 0.042-0.0509 0.062-0.0925 0.044-0.0925s-0.2035 0.19395-0.4116 0.431c-0.2709 0.30853-0.3456 0.43101-0.2631 0.43101 0.063 0 0.2226-0.12563 0.3537-0.27918zm0.8608-0.52559c0.6003-0.62976 0.7186-0.78569 0.6433-0.84817-0.074-0.0617-0.1737 0.0237-0.5117 0.44007-0.2306 0.28415-0.5692 0.67681-0.7524 0.87258s-0.284 0.34496-0.224 0.33154c0.06-0.0134 0.4402-0.37163 0.8448-0.79602zm-0.2492 0.68873c0.082-0.10517 0.08-0.10751-0.025-0.025-0.1105 0.0866-0.1456 0.14107-0.091 0.14107 0.014 0 0.066-0.0522 0.1161-0.11604zm0.7781-0.45485c0.4439-0.53537 0.5427-0.69507 0.4236-0.68461-0.096 0.008-1.0758 1.2555-0.9868 1.2555 0.05 0 0.3029-0.2569 0.5632-0.57089zm0.593 0.22785c0.2643-0.30844 0.2785-0.34391 0.1909-0.47586-0.052-0.0784-0.1253-0.14258-0.1628-0.14258-0.06 0-0.8109 0.86424-0.8109 0.93382 0 0.0152 0.1119 0.0255 0.2487 0.0228 0.2138-0.004 0.2886-0.0515 0.5341-0.33816zm0.6372 0.24084c0.09-0.0374 0.1128-0.0302 0.079 0.0246-0.026 0.0427-0.016 0.0776 0.022 0.0776 0.1063 0 0.086-0.0617-0.089-0.27l-0.1596-0.18969-0.094 0.14696c-0.2117 0.33155-0.2121 0.33382-0.044 0.29772 0.088-0.0188 0.2162-0.0581 0.286-0.0872zm-6.1915-0.26953c0.1626-0.16799 0.5642-0.54586 0.8924-0.83971 0.8922-0.79869 2.5653-2.4453 2.5254-2.4852-0.019-0.0192-0.3759 0.32085-0.7925 0.75571-0.8549 0.89242-1.7493 1.7041-1.5218 1.3812 0.078-0.11027 0.5916-0.66677 1.1421-1.2367 0.5505-0.56991 1.0008-1.0564 1.0008-1.0811s-0.6341 0.56861-1.409 1.3184c-0.775 0.74983-1.4827 1.4148-1.5727 1.4777l-0.1635 0.1144 0.1601-0.22931c0.088-0.12613 0.7625-0.83207 1.4986-1.5688 1.2295-1.2304 1.3294-1.3477 1.227-1.4403-0.1018-0.0922-0.1683-0.0426-0.7714 0.5754-0.363 0.37195-0.5633 0.58961-0.4451 0.48368 0.1181-0.10593 0.2288-0.17854 0.246-0.16137 0.069 0.069-2.9084 3.2309-2.979 3.1635-0.079-0.0756 0.036-0.21776 1.0275-1.2645l0.9579-1.0116-0.9533 0.89518c-1.2558 1.1793-1.529 1.4166-1.576 1.3696-0.022-0.0216 0.012-0.11697 0.074-0.21195 0.1081-0.16505 0.1078-0.16981-0.01-0.10762-0.066 0.0358-0.1931 0.14241-0.2815 0.23693l-0.1607 0.17186h0.7934 0.7935l0.2956-0.30542zm1.9347-3.2212c0.026-0.0662 0.041-0.12041 0.033-0.12041-0.01 0-0.6862 0.67633-1.5064 1.503l-1.4914 1.5029 1.4588-1.3825c0.8023-0.7604 1.4802-1.4367 1.5064-1.503zm0.3834 2.2861c0-0.0498-0.06 0.003-0.3343 0.29562l-0.2956 0.31497 0.3149-0.29562c0.1733-0.16259 0.315-0.30433 0.315-0.31497zm2.0866-1.1393c-0.04-0.0387-0.1582 0.0775-0.3182 0.31375l-0.254 0.37521 0.3182-0.31375c0.2014-0.19854 0.2947-0.33632 0.254-0.37521zm-0.8636-0.81425c0.071-0.0647 0.1142-0.13245 0.096-0.1505-0.018-0.0181-0.3446 0.28614-0.7257 0.67599l-0.6929 0.70882 0.5968-0.55832c0.3282-0.30707 0.6548-0.61127 0.7257-0.67599zm-1.939-0.97644c0.5066-0.45303 0.7581-0.7222 0.7339-0.78525-0.026-0.0667-0.2711 0.13444-0.8065 0.66091-0.4233 0.41627-0.889 0.85726-1.0349 0.97998-0.1459 0.12271-0.3829 0.3742-0.5266 0.55886-0.2343 0.30105-0.2032 0.28093 0.3011-0.19472 0.3093-0.29176 0.9092-0.84066 1.333-1.2198zm-1.1227 1.485c0.1491-0.12764 0.2987-0.23208 0.3323-0.23208 0.099 0 1.7716-1.6011 1.7716-1.6959 0-0.0476-0.024-0.10171-0.054-0.12018-0.03-0.0185-0.5834 0.48704-1.23 1.1233-1.1192 1.1013-1.4128 1.4326-0.8196 0.92483zm0.4462-1.1936c0.086-0.0912 0.1408-0.16577 0.1226-0.16577-0.018 0-0.1033 0.0746-0.1889 0.16577-0.086 0.0912-0.1408 0.16577-0.1226 0.16577 0.018 0 0.1032-0.0746 0.1889-0.16577zm1.1085-1.301c0.05-0.0155 0.059-0.0596 0.025-0.11424-0.042-0.0669-0.094-0.0339-0.2093 0.13262-0.1258 0.18102-0.1305 0.20195-0.026 0.11424 0.071-0.0591 0.1649-0.11874 0.2093-0.13262z"/>
  </g>
 </g>
</svg>
