<svg xmlns="http://www.w3.org/2000/svg" height="4.516mm" viewBox="0 0 16.000001 15.999999" width="4.516mm"><path fill="none" d="M0 0h16v16H0z"/><path d="M10.89 13.46c0-.12-.32-.13-4.013-.126-2.207.003-4.042-.012-4.078-.034-.036-.022-.055-.636-.044-1.366.012-.73.023-1.672.025-2.095l.005-.77H4.28v2.86l.354-.047c.195-.027 1.894-.05 3.776-.054l3.42-.006.023-1.318.02-1.32.73-.02.727-.024v.324c0 .178.04.396.086.485.062.117.062.186 0 .248-.056.056-.086.6-.086 1.565 0 .848-.032 1.5-.075 1.525-.04.026-.527.047-1.08.048-.812 0-1.03.025-1.145.128-.13.117-.14.117-.14-.004zm-7.317-.808l.51-.52-.606.382c-.37.233-.607.436-.61.52-.007.252.19.144.706-.382zm.356-.03c.29-.303.56-.53.596-.508.038.023.068.002.068-.047 0-.052-.104-.078-.255-.063-.202.02-.252.056-.23.173.015.096-.125.302-.392.573-.23.232-.395.422-.368.422.027 0 .288-.247.58-.55zm.17.314c.055-.11.14-.188.185-.176.047.012.062-.016.033-.063-.03-.046-.01-.136.043-.2.208-.25.01-.092-.36.287-.347.358-.368.398-.195.375.112-.016.238-.11.295-.224zm.87.138c.11-.09.41-.637.41-.744 0-.033-.194.133-.432.37-.238.235-.432.39-.432.344 0-.046.074-.15.164-.233.152-.137.347-.427.288-.427-.014 0-.196.174-.404.385l-.378.385.34.005c.186.003.387-.035.445-.084zm.824-.45c.31-.303.58-.533.602-.512.022.02-.188.27-.466.55l-.505.51.352-.007c.333-.007.38-.037.893-.592.443-.48.51-.585.374-.585-.092 0-.168.048-.168.107 0 .134-.934 1.034-1.002.966-.028-.027.176-.28.454-.56l.505-.512H5.724l-.14.296-.14.296.244-.232c.133-.127.242-.196.242-.153 0 .044-.11.184-.243.31-.27.258-.582.667-.508.667.026 0 .3-.247.612-.55zm1.32-.043c.32-.325.532-.59.467-.59-.064 0-.38.265-.703.59-.323.326-.534.592-.47.592.066 0 .383-.266.706-.59zm1.336 0c.323-.325.534-.59.47-.59-.066 0-.363.245-.66.545-.316.32-.602.542-.687.536-.08-.006-.146-.03-.146-.055s.212-.255.47-.51c.26-.258.458-.48.443-.495-.015-.016-.252.207-.527.494-.275.287-.514.48-.53.43-.018-.052.157-.285.388-.52.362-.365.396-.425.247-.425-.096 0-.175.03-.175.068s-.24.304-.53.59l-.532.522h.592l.592.002.586-.592zm.426-.02c.3-.314.495-.567.433-.56-.062.005-.36.274-.663.6-.303.323-.498.576-.433.56.065-.014.363-.285.662-.6zm.473 0c.298-.314.492-.57.43-.57-.063 0-.378.268-.702.597-.392.398-.536.59-.43.572.086-.015.4-.285.7-.6zm.402 0c.56-.52.597-.57.405-.57-.116 0-.21.042-.21.095s-.223.324-.493.6c-.65.668-.477.595.298-.124zm.154.534c.027-.044-.004-.058-.074-.03-.22.083-.13-.054.362-.57.267-.277.453-.5.413-.495-.04.005-.316.27-.616.59-.506.542-.53.582-.338.582.113 0 .227-.035.254-.078zm.55-.077c.027-.086.27-.352.537-.592.37-.33.45-.436.328-.436-.093 0-.4.24-.745.59-.54.546-.57.592-.377.592.14 0 .226-.052.258-.155zm.722.057c.034-.055.07-.152.078-.217.018-.135 1.77-1.83 1.83-1.77.022.02-.33.41-.78.862s-.8.84-.782.86c.02.02.4-.308.844-.728l.807-.764-.007-.395c-.004-.244-.028-.34-.063-.25-.03.077-.586.672-1.234 1.32-1.036 1.04-1.15 1.18-.965 1.18.117 0 .24-.045.273-.1zm1.184-.572c.373-.37.698-.652.72-.63.024.024-.238.326-.58.67-.344.347-.57.63-.506.63.065 0 .36-.243.653-.54.49-.495.53-.564.508-.83l-.025-.29-.825.83c-.454.456-.78.83-.725.83.054 0 .405-.302.78-.67zm.528.362c.165-.17.287-.348.27-.397-.015-.05-.204.09-.418.308-.23.234-.34.397-.27.397.064 0 .253-.14.418-.308zm.282.11c0-.107-.01-.196-.025-.196-.015 0-.11.09-.21.197l-.186.197h.212c.172 0 .21-.036.21-.197zm-9.795-.758l.47-.482-.403.285c-.222.156-.443.284-.492.284-.05 0-.09.09-.09.198 0 .108.01.197.023.197s.234-.218.492-.484zm1.674-.07c.053 0 .095-.037.095-.084 0-.198-.352-.012-.533.282l-.195.315.27-.257c.148-.14.312-.257.364-.257zm-.928-.61c0-.23-.01-.415-.022-.415s-.2.183-.414.406l-.39.405.312-.206c.477-.316.546-.132.117.312l-.35.362.373-.224c.37-.22.374-.228.374-.638zm1.22.61c.078-.086.103-.157.054-.157-.048 0-.126.07-.172.157-.046.086-.07.157-.054.157s.094-.07.172-.157zm-1.22-1.378c0-.12-.14-.016-.582.432-.32.325-.608.68-.638.79-.04.146.105.037.582-.433.38-.375.638-.694.638-.79zm8.832-.2c.215-.32.18-.295-.36.235-.332.325-.602.643-.602.707 0 .155.653-.484.962-.942zm-9.66.513l.226-.314-.21.19c-.142.13-.21.156-.21.082 0-.06.238-.36.53-.665l.532-.554-.61.588c-.53.514-.61.626-.61.865 0 .293.01.288.352-.192zm9.043-.25l.305-.33-.305.106c-.263.09-.31.14-.332.37-.014.144-.014.245 0 .222.015-.022.164-.188.332-.37zM4.11 9.423c-.007-.176-.018-.192-.043-.064-.018.095-.28.405-.58.69-.3.283-.545.554-.545.6 0 .05.265-.155.59-.45.494-.453.586-.577.578-.776zm.002.84c-.016-.046-.113.048-.215.21l-.186.292.216-.21c.118-.114.202-.245.186-.292zm9.06-.91c0-.027-.053-.048-.118-.048s-.118.05-.118.113c0 .06-.212.297-.472.524-.26.226-.472.468-.472.538 0 .073.247-.127.59-.478.325-.333.59-.626.59-.65zm-.015.464l.023-.236-.26.276c-.514.548-.535.605-.14.39.28-.155.358-.243.377-.43zm-9.382-.413c-.072-.072-.828.7-.83.848 0 .065.198-.088.44-.34s.42-.48.39-.508zm8.41.528c-.02-.036.072-.192.207-.346.296-.34.13-.392-.19-.06-.232.244-.316.755-.093.57.064-.055.098-.128.076-.164zM3.61 9.237c-.052-.052-.666.55-.666.654 0 .044.158-.076.352-.267.194-.19.335-.364.314-.386zm-.47.148c.14-.153.138-.158-.027-.158-.116 0-.168.05-.168.158 0 .086.012.158.027.158s.09-.07.17-.158zm9.01-.005c0-.04-.034-.074-.077-.074s-.078.055-.078.123c0 .066.035.1.08.073.042-.027.077-.082.077-.123zm-4.627.473c-.347-.377-.534-.524-.623-.49-.09.035-.113.015-.08-.072.052-.135-1.76-2-1.853-1.907-.03.03-.055 0-.055-.064 0-.067-.07-.184-.156-.262-.086-.077-.14-.168-.12-.2.02-.033.494-.043 1.053-.023.747.027 1.03.01 1.075-.06.032-.052.07-.792.086-1.643.015-.85.048-1.84.074-2.198l.047-.65h2.169l.046.298c.027.165.052 1.195.056 2.29l.007 1.987h1.095c.602 0 1.096.026 1.096.06 0 .032-.77.827-1.71 1.765L8.016 10.39l-.497-.537zm2.072-1.276l1.574-1.596L9.61 8.51c-.855.842-1.58 1.506-1.608 1.477-.03-.03.122-.235.335-.457l.39-.404-.5.334c-.273.183-.516.314-.54.29-.023-.024.544-.638 1.262-1.365.716-.728 1.33-1.297 1.36-1.265s-.063.188-.212.35l-.27.29.393-.306c.218-.168.43-.335.47-.37.04-.037-.097-.067-.305-.067h-.38l-1.29 1.277C8.008 8.997 7.43 9.522 7.43 9.46c0-.06.22-.34.49-.618l.493-.507-.57.455c-.313.25-.57.49-.57.532 0 .043.168.252.374.464l.375.386L9.59 8.578zm.1-.41c.39-.404.408-.435.136-.232-.173.13-.403.294-.512.366-.108.074-.39.315-.63.536l-.432.403.493-.303c.272-.166.697-.512.945-.77zm-.55-1.3c.01-.07-.433.345-.988.92-.555.575-1.038 1.045-1.074 1.045-.14 0 .242-.442 1.14-1.317.52-.505.933-.95.92-.99-.046-.137-.178-.08-.275.114-.053.107-.496.584-.983 1.06-1.127 1.098-1.13 1.1-1.006 1.25.084.1.257-.036 1.17-.92.59-.57 1.083-1.093 1.095-1.162zm.533.222c.024-.04-.056-.073-.178-.073-.18 0-.403.183-1.166.956l-.942.955 1.122-.884c.616-.486 1.14-.916 1.165-.955zM6.877 8.476c.1-.108.167-.197.145-.197-.02 0-.122.09-.224.197-.102.11-.167.197-.146.197.022 0 .123-.09.225-.197zm2.095-2.54c.06-.022.108-.1.107-.17 0-.073-.59.47-1.338 1.23-.734.75-1.355 1.362-1.38 1.362-.14 0 .286-.48 1.426-1.598.71-.696 1.292-1.3 1.292-1.34 0-.123-.38.215-1.7 1.516l-1.27 1.25.196.194.195.195 1.182-1.3c.65-.713 1.23-1.317 1.29-1.34zm-1.4.62c1.515-1.474 1.52-1.48 1.494-1.79l-.025-.314-.257.267c-.28.29-.284.446-.006.2.144-.13.16-.13.097-.016-.088.162-2 2.113-2.072 2.113-.1 0-.95.92-.9.97.03.03.076.054.102.052.025-.003.73-.67 1.566-1.483zm-1.41.855c.18-.217.298-.395.258-.395-.126 0-.805.642-.76.717.08.13.165.077.5-.322zm2.915-1.34c-.004-.12-.103-.02-1.093 1.115-.473.54-.453.528.295-.208.44-.434.8-.842.797-.908zM5.83 7.317c.143-.138.26-.275.26-.304 0-.11-.673-.054-.808.066-.132.116-.13.13.033.306.095.1.19.184.214.184.022 0 .157-.114.3-.252zm-.45.033c0-.04.077-.14.17-.222.168-.15.168-.15.078.023-.1.193-.247.31-.247.2zm-.156-.38c0-.018-.073-.032-.162-.032-.09 0-.14.034-.116.076.042.068.278.03.278-.045zm1.895-.58c-.044-.027.38-.533.94-1.124 1.384-1.46 1.35-1.694-.042-.3-1 1-1.063 1.08-1.063 1.37 0 .267.016.293.122.205.075-.06.09-.12.042-.15zm.506-1.278l.628-.643-.59.46c-.325.255-.595.465-.6.466-.026.007-.116.36-.093.36.016 0 .31-.29.656-.644zm-.41-.267c.052-.045.182-.183.29-.306l.197-.226-.332.227c-.286.198-.33.265-.322.505.007.208.016.227.042.08.018-.11.076-.235.127-.28zM9.08 3.45c0-.228-.184-.088-1.062.81l-.787.805.925-.735c.582-.463.925-.79.925-.88zm-.01-.72c-.008-.18-.027-.25-.045-.154-.02.097-.483.606-1.032 1.133l-.998.956 1.042-.804 1.043-.804-.01-.328zM7.19 4.204c0-.067.24-.376.533-.686.292-.31.44-.485.33-.387-.112.1-.236.18-.276.182-.04.002-.225.14-.41.306-.258.236-.333.36-.333.554 0 .147.032.23.08.202.042-.027.077-.103.077-.17zm.513-1.132c.344-.347.608-.63.586-.63-.022 0-.322.283-.666.63-.344.347-.608.63-.586.63.02 0 .32-.283.665-.63zm.19-.62c-.115-.04-.86.698-.86.85 0 .068.208-.085.475-.35.26-.26.434-.484.386-.5zm-.466.002c-.283-.044-.393.045-.393.315v.254l.28-.272c.26-.253.27-.274.113-.298zm1.024.184c.102-.11.168-.198.146-.198-.022 0-.123.09-.224.198-.102.108-.167.197-.146.197.022 0 .123-.09.225-.197z"/></svg>