<svg xmlns="http://www.w3.org/2000/svg" height="4.516mm" viewBox="0 0 15.999999 15.999999" width="4.516mm"><path fill="none" d="M0 0h16v16H0z"/><path d="M7.24 14.11l-.71-.903-.2.187c-.168.157-.188.164-.124.04.04-.08.105-.163.14-.185.112-.07.076-.194-.123-.433-.167-.2-.204-.217-.3-.137-.148.122-.22.036-.092-.11.057-.064.088-.156.07-.205-.022-.064-.077-.047-.206.067-.14.123-.152.127-.06.016.143-.17.152-.302.016-.25-.072.027-.09.007-.058-.07.05-.133-.16-.39-.282-.343-.106.04-.183-.07-.09-.127.072-.044-.215-.49-.54-.838-.095-.104-.19-.226-.21-.272-.02-.046-.26-.366-.534-.71-.273-.347-.482-.652-.464-.68.018-.03.426-.054.907-.056.663-.002.905-.025 1.003-.1.178-.134.348-.133.236.003-.074.088.097.1 1.47.1 1.552 0 1.553 0 1.778-.166.285-.212.33-.212.132 0l-.155.164h.595c.374 0 .624-.03.674-.08.062-.06.08-.06.08 0s.31.08 1.19.08c.654 0 1.205.025 1.224.056.04.062-.298.5-2.766 3.59-.976 1.223-1.8 2.232-1.83 2.243-.033.01-.38-.387-.77-.883zm.917.397c.153-.21.113-.21-.086.002-.085.09-.127.164-.094.162.034 0 .115-.075.18-.165zm-.18-.308l.193-.21-.215.147c-.12.082-.216.177-.216.21 0 .095.025.08.236-.148zm-.097-.338c.2-.26.203-.27.033-.116-.176.157-.345.398-.28.398.016 0 .127-.127.247-.282zm.264-.472c.05-.008.376-.297.723-.642.346-.344.794-.76.994-.923l.366-.297-.26.33c-.145.182-.486.584-.76.894l-.496.563.46-.44c.253-.242.526-.474.606-.515.08-.04.527-.544.99-1.118 1.07-1.323 1.052-1.298.624-.928-.385.333-.523.367-.27.067.083-.1-.434.415-1.15 1.144-1.25 1.272-1.582 1.556-1.057.903.135-.168-.135.083-.6.557-.466.474-.822.81-.792.75.03-.062.52-.614 1.088-1.227 1.632-1.762 1.65-1.816.077-.258-1.452 1.438-1.465 1.453-1.355 1.602l.11.15.306-.298c.168-.164.347-.305.398-.314zm.325.257c.085-.09.14-.166.122-.166-.018 0-.104.076-.19.167-.085.09-.14.166-.122.166.018 0 .103-.075.19-.166zm.622-1.973c1.566-1.62 2.03-2.048 2.03-1.878 0 .016-.215.292-.478.614l-.477.584.875-.823c.48-.45.875-.832.875-.844 0-.012-.425-.022-.945-.02h-.945l-.29.347c-.16.19-.744.84-1.3 1.44-1.178 1.274-1.69 1.866-1.69 1.952 0 .033.048.115.108.182.105.116.156.076 1.113-.863.55-.542 1.07-1.022 1.155-1.066.145-.078.148-.075.07.072-.044.085-.524.604-1.065 1.154-.88.892-1.102 1.15-.932 1.078.03-.012.882-.88 1.896-1.928zm-2.214 1.478c0-.042.803-.887 1.785-1.88 1.43-1.444 1.803-1.786 1.87-1.72s-.24.4-1.537 1.676c-1.684 1.656-2.118 2.05-2.118 1.924zm3.41-2.928c.29-.306.58-.614.645-.685.065-.072.137-.11.16-.09.05.05-1.005 1.16-1.196 1.26-.074.04.102-.18.392-.486zM6.83 12.67c.09-.12.604-.68 1.14-1.245 1.5-1.58 1.772-1.935.664-.87-1.542 1.484-2.15 2.128-2.108 2.234.055.142.122.116.304-.12zm2.152-2.623l.81-.744h-.412l-.412.002L7.74 10.5c-.675.656-1.347 1.285-1.492 1.397-.146.113.376-.426 1.16-1.197.784-.77 1.377-1.393 1.318-1.383s-.72.617-1.467 1.346c-1.325 1.293-1.358 1.33-1.253 1.468.106.14.133.117 1.548-1.276C8.867 9.56 9.132 9.332 9.132 9.49c0 .028-.65.7-1.446 1.49-1.144 1.135-1.434 1.457-1.387 1.54.047.088.23-.065.965-.81.498-.507 1.27-1.255 1.715-1.663zm-.776-.64c0 .03-.067.13-.15.224-.08.094-.034.066.105-.06l.25-.233-.35-.02-.354-.022-.426.485c-.235.267-.714.774-1.066 1.127-.5.503-.626.666-.58.75.05.086.292-.117 1.315-1.098.69-.664 1.254-1.182 1.254-1.153zm-2.49 1.637l.257-.315-.275.26c-.234.223-.336.37-.257.37.01 0 .135-.143.276-.316zm-.225-.127l.227-.242-.25.184c-.135.1-.247.21-.247.242 0 .09.025.074.27-.185zM6.55 9.57c.054 0 .04.046-.037.13-.225.25.01.135.265-.13l.26-.267h-.215c-.18 0-.338.116-1.008.736-.437.404-.794.757-.794.784 0 .173.162.054.767-.56.375-.383.72-.695.764-.695zm-1.555.958c.016-.11-.078-.13-.14-.03-.048.077.028.225.086.167.023-.02.047-.083.055-.137zm-.294-.22c-.063-.042.024-.156.327-.43.418-.38.617-.46.32-.13-.088.097 0 .044.19-.117l.347-.293-.276-.02c-.26-.02-.3.002-.693.39-.346.343-.406.435-.352.536.036.067.1.12.145.12.058 0 .056-.016-.01-.056zm7.38-.995c-.016-.018-.038-.02-.047-.002-.01.017-.18.208-.38.426l-.366.397.413-.395c.227-.216.398-.408.38-.425zm-7.554.333c-.147-.03-.302.11-.255.23.032.08.07.07.202-.055.135-.126.144-.156.055-.174zm1.887-.32c0-.012-.037-.022-.083-.02-.045 0-.202.142-.348.314l-.265.313.348-.292c.192-.16.348-.3.348-.314zm1.12-.006c.017-.01-.013-.016-.064-.015-.053 0-.197.127-.32.282l-.228.28.292-.265c.16-.146.305-.273.32-.282zm-3.55.08c-.022-.056-.053-.088-.07-.07-.018.017-.013.063.01.102.066.106.104.085.06-.032zm.938-.03c.025-.038-.037-.066-.144-.065-.144 0-.164.015-.087.065.127.082.18.082.23 0zm2.753-2.11c0-.035.045-.1.1-.145.055-.045.1-.104.1-.13 0-.087-.995-.14-1.14-.06-.1.05-.124.05-.092-.002.077-.122-1.053-.097-1.155.027-.045.054-.128.1-.182.1-.083 0-.085-.018-.013-.105.078-.094-.01-.102-.887-.088-.535.01-.992-.003-1.016-.027-.024-.023-.014-.08.023-.127.036-.047.89-1.122 1.9-2.39C6.316 3.045 7.134 1.98 7.125 1.947c-.016-.062.617-.925.682-.93.02 0 .21.204.424.456.265.312.42.446.49.42.076-.03.09-.01.056.08-.033.084.03.192.22.383.147.146.267.28.267.296 0 .017.037.07.083.116.046.047.182.205.303.352.158.19.26.257.35.234.135-.036.17.046.064.15-.1.1.636.93.805.91.11-.015.128.01.097.126-.028.106.037.235.24.48.154.185.33.396.39.47.06.073.32.386.58.694.483.577.514.63.406.698-.035.02-1.057.038-2.27.036-2.124-.002-2.212.002-2.29.128-.092.147-.35.304-.35.212zM6.647 6.104c.342-.353.426-.458.197-.247-.218.2-.485.44-.592.53l-.194.164.155-.232.156-.232-.275.26c-.26.246-.3.37-.124.37.045 0 .35-.276.677-.613zm.5.303l.294-.31-.26.208c-.614.49-.234.05 1.116-1.288C9.322 4 9.72 3.565 9.67 3.515c-.052-.05-.452.3-1.383 1.213-.72.706-1.474 1.443-1.674 1.637l-.364.353h.3c.27 0 .33-.03.596-.31zm.677.062c.65-.753 1.757-1.942 2.014-2.165l.296-.257-.148-.158-.15-.158-.666.71c-.368.39-.668.736-.668.77 0 .036-.343.39-.762.784l-.763.72h.317c.284 0 .34-.024.53-.246zm1.34-1.9c.365-.345.675-.616.69-.6.034.034-1.096 1.102-1.245 1.176-.06.03.19-.23.554-.575zm-.728 1.733c.594-.74 1.235-1.575 1.21-1.575-.014 0-.435.448-.936.995-.75.818-.885.994-.76.994.11 0 .253-.123.486-.414zm1.293-.62c.6-.705.855-1.053.81-1.1-.048-.046-.095-.02-.152.088-.18.34-1.786 1.978-1.786 1.822 0-.017.173-.25.384-.516.34-.43.565-.746.463-.65-.032.027-.877 1.068-1.065 1.31-.05.062 0 .08.2.08.262 0 .282-.016 1.144-1.032zm-.273.755c.13-.153.23-.306.22-.338-.01-.033.016-.1.058-.152.042-.05.062-.093.044-.093s-.205.194-.413.43c-.27.31-.345.432-.263.432.063 0 .223-.125.354-.28zm.86-.525c.6-.63.72-.786.644-.848-.073-.062-.172.023-.51.44-.23.284-.57.676-.753.872s-.284.345-.224.332c.06-.015.44-.373.845-.797zm-.248.688c.08-.104.08-.106-.026-.024-.11.087-.146.142-.09.142.013 0 .065-.053.115-.117zm.777-.453c.444-.536.543-.695.424-.685-.095.008-1.075 1.255-.986 1.255.05 0 .303-.256.563-.57zm.593.227c.264-.308.278-.343.19-.475-.05-.08-.124-.144-.162-.144-.06 0-.81.864-.81.934 0 .015.11.025.248.023.214-.004.288-.052.534-.34zm.637.24c.09-.036.113-.03.08.026-.027.043-.017.077.02.077.107 0 .087-.06-.088-.27l-.16-.19-.094.148c-.212.33-.213.334-.044.297.088-.018.216-.058.286-.087zm-6.19-.268c.16-.168.563-.546.89-.84.893-.8 2.566-2.445 2.526-2.485-.02-.018-.375.322-.792.757-.854.892-1.748 1.704-1.52 1.38.077-.11.59-.666 1.14-1.236.552-.57 1.002-1.055 1.002-1.08s-.634.57-1.41 1.318c-.774.75-1.482 1.415-1.572 1.478l-.163.114.16-.23c.088-.125.762-.83 1.5-1.568 1.228-1.23 1.328-1.347 1.226-1.44-.102-.092-.17-.043-.772.575-.362.372-.562.59-.444.484.118-.105.23-.177.246-.16.07.07-2.908 3.23-2.98 3.163-.078-.075.037-.217 1.03-1.264l.956-1.013-.953.895C4.7 6.372 4.425 6.61 4.38 6.562c-.023-.022.01-.117.073-.212.108-.165.108-.17-.01-.108-.066.036-.193.143-.28.237L4 6.65H5.59l.295-.304zm1.933-3.22c.026-.068.04-.122.033-.122-.01 0-.686.676-1.506 1.503L4.857 6.01l1.457-1.382c.803-.76 1.48-1.437 1.507-1.503zm.384 2.285c0-.05-.06.004-.335.296l-.296.315.315-.294c.172-.163.314-.305.314-.315zm2.086-1.14c-.04-.037-.158.08-.318.315l-.254.375.318-.313c.202-.2.295-.337.254-.376zm-.863-.813c.07-.065.114-.132.096-.15-.018-.018-.345.286-.726.676l-.693.708.597-.557.727-.676zm-1.94-.976c.507-.452.76-.722.735-.785-.026-.066-.27.135-.807.66-.423.418-.89.86-1.035.98-.146.124-.383.376-.526.56-.235.3-.204.28.3-.195.31-.29.91-.84 1.334-1.22zM6.366 3.967c.15-.128.3-.232.332-.232.1 0 1.772-1.602 1.772-1.696 0-.048-.025-.102-.055-.12-.03-.02-.583.487-1.23 1.123-1.12 1.102-1.413 1.433-.82.926zm.446-1.194c.087-.09.142-.166.124-.166-.018 0-.103.075-.19.166-.085.09-.14.166-.122.166.018 0 .104-.075.19-.166zm1.11-1.3c.05-.016.06-.06.025-.115-.042-.067-.094-.034-.21.132-.125.18-.13.2-.026.114.07-.06.164-.12.21-.133z"/></svg>